<svg width="76" height="76" viewBox="0 0 76 76" fill="none" xmlns="http://www.w3.org/2000/svg">
<path d="M60.6071 28.5547H58.2275V30.786H60.6071V28.5547Z" fill="#C39F7B"/>
<path d="M65.3659 28.5547H62.9863V30.786H65.3659V28.5547Z" fill="#C39F7B"/>
<path d="M72.4305 28.5555V23.7963H60.5324V11.8239H58.3011V23.7962H48.7825V28.5554H45.0649V9.44419H42.8336V73.7685H30.7873V64.25H14.2778V73.7685H2.23146V2.23146H42.8333V5.8753H45.0647V0H0V76H55.8471V73.7685H45.0646V30.7868H55.8471V28.5555H51.0137V26.0276H70.1991V30.7868H73.7684V73.7684H59.4166V75.9998H75.9998V28.5555H72.4305ZM28.5555 73.7685H16.5092V66.4814H21.4167V71.3149H23.6482V66.4814H28.5555V73.7685Z" fill="#C39F7B"/>
<path d="M14.1295 4.75781H4.75928V14.1282H14.1297V4.75781H14.1295ZM11.8982 11.8968H6.99059V6.98927H11.8981V11.8968H11.8982Z" fill="#C39F7B"/>
<path d="M40.3052 4.75781H30.9351V14.1282H40.3052V4.75781ZM38.0737 11.8968H33.1664V6.98927H38.0737V11.8968Z" fill="#C39F7B"/>
<path d="M27.2176 4.75781H17.8472V14.1282H27.2176V4.75781ZM24.9861 11.8968H20.0786V6.98927H24.9861V11.8968Z" fill="#C39F7B"/>
<path d="M14.1295 16.6582H4.75928V26.0283H14.1297V16.6582H14.1295ZM11.8982 23.797H6.99059V18.8897H11.8981V23.797H11.8982Z" fill="#C39F7B"/>
<path d="M30.9351 26.0283H40.3052V16.6582H30.9351V26.0283ZM33.1665 18.8895H38.0739V23.7969H33.1665V18.8895Z" fill="#C39F7B"/>
<path d="M27.2176 16.6582H17.8472V26.0283H27.2176V16.6582ZM24.9861 23.797H20.0786V18.8897H24.9861V23.797Z" fill="#C39F7B"/>
<path d="M14.1295 28.5566H4.75928V37.9269H14.1297V28.5566H14.1295ZM11.8982 35.6956H6.99059V30.7881H11.8981V35.6956H11.8982Z" fill="#C39F7B"/>
<path d="M30.9351 37.9269H40.3052V28.5566H30.9351V37.9269ZM33.1665 30.788H38.0739V35.6954H33.1665V30.788Z" fill="#C39F7B"/>
<path d="M27.2176 28.5566H17.8472V37.9269H27.2176V28.5566ZM24.9861 35.6956H20.0786V30.7881H24.9861V35.6956Z" fill="#C39F7B"/>
<path d="M14.1295 40.4551H4.75928V49.8252H14.1297V40.4551H14.1295ZM11.8982 47.594H6.99059V42.6867H11.8981V47.594H11.8982Z" fill="#C39F7B"/>
<path d="M30.9351 49.8252H40.3052V40.4551H30.9351V49.8252ZM33.1665 42.6862H38.0739V47.5936H33.1665V42.6862Z" fill="#C39F7B"/>
<path d="M27.2176 40.4551H17.8472V49.8252H27.2176V40.4551ZM24.9861 47.594H20.0786V42.6867H24.9861V47.594Z" fill="#C39F7B"/>
<path d="M48.7822 43.8763H58.1525V34.5059H48.7822V43.8763ZM51.0137 36.7373H55.9212V41.6448H51.0137V36.7373Z" fill="#C39F7B"/>
<path d="M60.6807 43.8763H70.0508V34.5059H60.6807V43.8763ZM62.9121 36.7373H67.8195V41.6448H62.9121V36.7373Z" fill="#C39F7B"/>
<path d="M48.7822 56.964H58.1525V47.5938H48.7822V56.964ZM51.0137 49.8252H55.9212V54.7327H51.0137V49.8252Z" fill="#C39F7B"/>
<path d="M60.6807 56.964H70.0508V47.5938H60.6807V56.964ZM62.9121 49.8252H67.8195V54.7327H62.9121V49.8252Z" fill="#C39F7B"/>
<path d="M48.7822 70.05H58.1525V60.6797H48.7822V70.05ZM51.0137 62.9111H55.9212V67.8186H51.0137V62.9111Z" fill="#C39F7B"/>
<path d="M60.6807 70.05H70.0508V60.6797H60.6807V70.05ZM62.9121 62.9111H67.8195V67.8186H62.9121V62.9111Z" fill="#C39F7B"/>
<path d="M4.75928 61.7218H14.1297V52.3516H4.75928V61.7218ZM6.99059 54.5829H11.8981V59.4904H6.99059V54.5829Z" fill="#C39F7B"/>
<path d="M30.9351 61.7218H40.3052V52.3516H30.9351V61.7218ZM33.1665 54.5829H38.0739V59.4904H33.1665V54.5829Z" fill="#C39F7B"/>
<path d="M17.8472 61.7218H27.2176V52.3516H17.8472V61.7218ZM20.0786 54.5829H24.9861V59.4904H20.0786V54.5829Z" fill="#C39F7B"/>
<path d="M41.5758 64.25H40.3797H34.437H33.2407V66.4813H34.437H40.3797H41.5758V64.25Z" fill="#C39F7B"/>
<path d="M40.3797 71.2412H41.5758V69.0098H40.3797H34.437H33.2407V71.2412H34.437H40.3797Z" fill="#C39F7B"/>
</svg>
