<svg width="20" height="20" viewBox="0 0 20 20" fill="none" xmlns="http://www.w3.org/2000/svg">
<g clip-path="url(#clip0)">
<path d="M19.8711 8.4613C19.7596 8.32275 19.592 8.24219 19.414 8.24219H2.92969C2.65503 8.24219 2.417 8.43262 2.35749 8.70102L0.013883 19.3259C-0.0245693 19.4993 0.0178503 19.6807 0.128782 19.8199C0.240324 19.9583 0.447081 20.039 0.624999 20.039H17.0702C17.3449 20.039 17.5829 19.8484 17.6424 19.58L19.9862 8.95508C20.0245 8.78174 19.9822 8.60031 19.8711 8.4613ZM15.2733 17.1093C15.2733 17.4331 15.0113 17.6952 14.6874 17.6952H10C9.67608 17.6952 9.41409 17.4331 9.41409 17.1093V14.7655C9.41409 14.4416 9.67608 14.1796 10 14.1796H14.6874C15.0113 14.1796 15.2733 14.4416 15.2733 14.7655V17.1093Z" fill="#C39F7B"/>
<path d="M10.5859 15.3516H14.1014V16.5234H10.5859V15.3516Z" fill="#C39F7B"/>
<path d="M2.34376 7.17011V4.72656H0.585939C0.262147 4.72656 0 4.98856 0 5.3125V13.9858L1.21369 8.44697C1.34903 7.83677 1.78315 7.36588 2.34376 7.17011Z" fill="#C39F7B"/>
<path d="M11.7577 7.07018V5.08867C12.1178 4.67653 12.3436 4.14384 12.3436 3.5547C12.3436 2.41715 10.7547 0.579225 10.436 0.224457C10.2139 -0.0227358 9.78593 -0.0227358 9.56392 0.224457C9.24516 0.579225 7.65625 2.41715 7.65625 3.5547C7.65625 4.14384 7.88208 4.67637 8.24219 5.08867V7.07018H11.7577Z" fill="#C39F7B"/>
<path d="M19.5558 1.77447L16.3881 0.250118C16.2468 0.182063 16.086 0.172298 15.9401 0.225398C15.7936 0.276363 15.6735 0.383938 15.6059 0.524166L12.9297 6.08677V7.07005H17.0476L15.4314 6.29246C15.1396 6.15223 15.0171 5.80204 15.1573 5.51029C15.298 5.21961 15.6488 5.09663 15.9395 5.23625L18.0519 6.25248L18.5597 5.19657L16.4476 4.18049C16.1557 4.04026 16.0333 3.69007 16.1734 3.39832C16.3149 3.10703 16.6661 2.98404 16.9556 3.12427L19.068 4.14036L19.8299 2.55664C19.9701 2.26474 19.8477 1.91455 19.5558 1.77447Z" fill="#C39F7B"/>
<path d="M3.51562 7.07018H7.07032V5.49088C6.91438 5.25574 6.79658 4.99649 6.7003 4.72656H3.51562V7.07018Z" fill="#C39F7B"/>
<path d="M5.86777 0.431039C5.70878 -0.0473255 4.91562 -0.0473255 4.75663 0.431039L3.71826 3.55528H6.48408C6.48408 3.28688 6.5445 3.00627 6.62873 2.72307L5.86777 0.431039Z" fill="#C39F7B"/>
</g>
<defs>
<clipPath id="clip0">
<rect width="20" height="20" fill="white"/>
</clipPath>
</defs>
</svg>
