<svg width="20" height="20" viewBox="0 0 20 20" fill="none" xmlns="http://www.w3.org/2000/svg">
<g clip-path="url(#clip0)">
<path d="M14.415 8.62891H18.088V15.1151H14.415V8.62891Z" fill="#C39F7B"/>
<path d="M8.16357 8.62891H11.8365V15.1151H8.16357V8.62891Z" fill="#C39F7B"/>
<path d="M18.7915 16.2891C18.2015 16.2891 1.92245 16.2891 1.20834 16.2891C0.561986 16.2891 0.0361328 16.8149 0.0361328 17.4613V18.8288C0.0361328 19.4752 0.561986 20.0011 1.20834 20.0011H18.7915C19.4378 20.0011 19.9637 19.4752 19.9637 18.8288V17.4613C19.9637 16.8149 19.4378 16.2891 18.7915 16.2891Z" fill="#C39F7B"/>
<path d="M19.2291 3.67993C10.2002 -0.0118686 10.4418 0.0868706 10.4353 0.0842527C10.1567 -0.0272244 9.84698 -0.0294907 9.56041 0.0858938L0.770717 3.67993C0.324379 3.85951 0.0361328 4.28612 0.0361328 4.76739V6.2852C0.0361328 6.93156 0.561986 7.45741 1.20834 7.45741H18.7915C19.4378 7.45741 19.9637 6.93156 19.9637 6.2852V4.76739C19.9637 4.28612 19.6754 3.85951 19.2291 3.67993ZM10.586 4.37055C10.586 4.69424 10.3236 4.95666 9.99991 4.95666C9.67623 4.95666 9.41381 4.69424 9.41381 4.37055V3.1202C9.41381 2.79651 9.67623 2.53409 9.99991 2.53409C10.3236 2.53409 10.586 2.79651 10.586 3.1202V4.37055Z" fill="#C39F7B"/>
<path d="M1.91162 8.62891H5.58454V15.1151H1.91162V8.62891Z" fill="#C39F7B"/>
</g>
<defs>
<clipPath id="clip0">
<rect width="20" height="20" fill="white"/>
</clipPath>
</defs>
</svg>
