<svg width="80" height="80" viewBox="0 0 80 80" fill="none" xmlns="http://www.w3.org/2000/svg">
<path d="M74.9068 74.2084V74.3584H75.0568H78.4375C79.2177 74.3584 79.85 74.9907 79.85 75.7709C79.85 76.5505 79.2177 77.1834 78.4375 77.1834H1.5625C0.782344 77.1834 0.15 76.5505 0.15 75.7709C0.15 74.9907 0.782306 74.3584 1.5625 74.3584H3.28125H3.43125V74.2084V18.7213V18.5713H3.28125C2.50106 18.5713 1.86875 17.939 1.86875 17.1588C1.86875 16.3792 2.50109 15.7463 3.28125 15.7463H20.2826H20.4326V15.5963V11.0834C20.4326 10.3032 21.0649 9.67087 21.8451 9.67087H29.1101H29.2601V9.52087V5.97778C29.2601 5.19759 29.8924 4.56528 30.6726 4.56528C31.4528 4.56528 32.0851 5.19759 32.0851 5.97778V15.5963V15.7463H32.2351H36.0938C36.8739 15.7463 37.5062 16.3786 37.5062 17.1588C37.5062 17.939 36.8739 18.5713 36.0938 18.5713H35.9332H35.7832V18.7213V29.8682V30.0182H35.9332H46.7297H46.8797V29.8682V26.5759V26.4259H46.7297H41.7523C40.9722 26.4259 40.3398 25.7931 40.3398 25.0134V4.375C40.3398 3.59481 40.9721 2.9625 41.7523 2.9625H68.399C69.1792 2.9625 69.8115 3.59481 69.8115 4.375V25.0134C69.8115 25.7931 69.1792 26.4259 68.399 26.4259H63.4216H63.2716V26.5759V29.8682V30.0182H63.4216H75.1947C75.9749 30.0182 76.6072 30.6505 76.6072 31.4307C76.6072 32.2103 75.9749 32.8432 75.1947 32.8432H75.0568H74.9068V32.9932V74.2084ZM43.3148 5.7875H43.1648V5.9375V23.4509V23.6009H43.3148H66.8365H66.9865V23.4509V5.9375V5.7875H66.8365H43.3148ZM49.8547 26.4259H49.7047V26.5759V29.8682V30.0182H49.8547H60.2966H60.4466V29.8682V26.5759V26.4259H60.2966H49.8547ZM23.4076 12.4959H23.2576V12.6459V15.5963V15.7463H23.4076H29.1101H29.2601V15.5963V12.6459V12.4959H29.1101H23.4076ZM6.40625 18.5713H6.25625V18.7213V74.2084V74.3584H6.40625H32.8082H32.9582V74.2084V55.3528C32.9582 54.5726 33.5905 53.9403 34.3707 53.9403C35.1509 53.9403 35.7832 54.5726 35.7832 55.3528V62.8131V62.9631H35.9332H71.9318H72.0818V62.8131V32.9932V32.8432H71.9318H35.9332H35.7832V32.9932V41.2927C35.7832 42.0729 35.1509 42.7052 34.3707 42.7052C33.5905 42.7052 32.9582 42.0729 32.9582 41.2927V18.7213V18.5713H32.8082H6.40625ZM35.9332 65.7875H35.7832V65.9375V74.2084V74.3584H35.9332H47.9712H48.1212V74.2084V65.9375V65.7875H47.9712H35.9332ZM50.9462 74.2084V74.3584H51.0962H57.0062H57.1562V74.2084V65.9375V65.7875H57.0062H51.0962H50.9462V65.9375V74.2084ZM59.9812 74.2084V74.3584H60.1312H71.9318H72.0818V74.2084V65.9375V65.7875H71.9318H60.1312H59.9812V65.9375V74.2084Z" fill="#C39F7B" stroke="#172031" stroke-width="0.3"/>
<path d="M53.7522 14.6727L53.6844 14.7628L53.7522 14.853C54.224 15.4804 54.5033 16.2601 54.5033 17.1035C54.5033 19.1728 52.82 20.8567 50.7507 20.8567H48.1738C47.3936 20.8567 46.7613 20.2244 46.7613 19.4442V10.082C46.7613 9.30241 47.3937 8.66953 48.1738 8.66953H50.7507C52.82 8.66953 54.5033 10.3534 54.5033 12.4227C54.5033 13.2661 54.2241 14.0453 53.7522 14.6727ZM49.7363 11.4945H49.5863V11.6445V13.218V13.3925L49.7589 13.3663C49.8278 13.3558 49.8984 13.3503 49.9707 13.3503H50.7507C51.2627 13.3503 51.6783 12.9346 51.6783 12.4227C51.6783 11.911 51.2628 11.4945 50.7507 11.4945H49.7363ZM49.7577 16.1598L49.5863 16.1351V16.3082V17.8811V18.0311H49.7363H50.7507C51.2627 18.0311 51.6783 17.6154 51.6783 17.1035C51.6783 16.5917 51.2628 16.1753 50.7507 16.1753H49.9707C49.8984 16.1753 49.8274 16.1698 49.7577 16.1598Z" fill="#C39F7B" stroke="#172031" stroke-width="0.3"/>
<path d="M62.3773 20.5698H60.2466C58.073 20.5698 56.3048 18.8011 56.3048 16.6281V12.6119C56.3048 10.4383 58.073 8.66953 60.2466 8.66953H62.3773C63.1569 8.66953 63.7898 9.30245 63.7898 10.082C63.7898 10.8622 63.1569 11.4945 62.3773 11.4945H60.2466C59.6302 11.4945 59.1298 11.9958 59.1298 12.6119V16.6281C59.1298 17.2437 59.6302 17.7448 60.2466 17.7448H62.3773C63.1569 17.7448 63.7898 18.3778 63.7898 19.1573C63.7898 19.9375 63.1569 20.5698 62.3773 20.5698Z" fill="#C39F7B" stroke="#172031" stroke-width="0.3"/>
<path d="M25.7925 30.6434H25.9425V30.4934V25.9512V25.8012H25.7925H21.2502H21.1002V25.9512V30.4934V30.6434H21.2502H25.7925ZM13.583 25.8012H13.433V25.9512V30.4934V30.6434H13.583H18.1252H18.2752V30.4934V25.9512V25.8012H18.1252H13.583ZM13.583 33.4684H13.433V33.6184V38.1606V38.3106H13.583H18.1252H18.2752V38.1606V33.6184V33.4684H18.1252H13.583ZM25.7925 38.3106H25.9425V38.1606V33.6184V33.4684H25.7925H21.2502H21.1002V33.6184V38.1606V38.3106H21.2502H25.7925ZM12.0205 22.9762H27.355C28.1352 22.9762 28.7675 23.6085 28.7675 24.3887V39.7231C28.7675 40.5033 28.1352 41.1356 27.355 41.1356H12.0205C11.2403 41.1356 10.608 40.5033 10.608 39.7231V24.3887C10.608 23.6085 11.2403 22.9762 12.0205 22.9762Z" fill="#C39F7B" stroke="#172031" stroke-width="0.3"/>
<path d="M13.583 62.2875H13.433V62.4375V66.9797V67.1297H13.583H18.1252H18.2752V66.9797V62.4375V62.2875H18.1252H13.583ZM25.7925 67.1297H25.9425V66.9797V62.4375V62.2875H25.7925H21.2502H21.1002V62.4375V66.9797V67.1297H21.2502H25.7925ZM12.0205 59.4625H27.355C28.1352 59.4625 28.7675 60.0948 28.7675 60.875V68.5422C28.7675 69.3224 28.1352 69.9547 27.355 69.9547H12.0205C11.2403 69.9547 10.608 69.3224 10.608 68.5422V60.875C10.608 60.0948 11.2403 59.4625 12.0205 59.4625Z" fill="#C39F7B" stroke="#172031" stroke-width="0.3"/>
<path d="M13.583 47.8773H13.433V48.0273V52.5696V52.7196H13.583H18.1252H18.2752V52.5696V48.0273V47.8773H18.1252H13.583ZM25.7925 52.7196H25.9425V52.5696V48.0273V47.8773H25.7925H21.2502H21.1002V48.0273V52.5696V52.7196H21.2502H25.7925ZM12.0205 45.0523H27.355C28.1352 45.0523 28.7675 45.6846 28.7675 46.4648V54.1321C28.7675 54.9123 28.1352 55.5446 27.355 55.5446H12.0205C11.2403 55.5446 10.608 54.9123 10.608 54.1321V46.4648C10.608 45.6846 11.2403 45.0523 12.0205 45.0523Z" fill="#C39F7B" stroke="#172031" stroke-width="0.3"/>
<path d="M51.541 43.1833V43.3333H51.691H56.3224H56.4724V43.1833V39.5664V39.4164H56.3224H51.691H51.541V39.5664V43.1833ZM64.1147 43.3333H64.2647V43.1833V39.5664V39.4164H64.1147H59.4474H59.2974V39.5664V43.1833V43.3333H59.4474H64.1147ZM43.8486 39.4164H43.6986V39.5664V43.1833V43.3333H43.8486H48.566H48.716V43.1833V39.5664V39.4164H48.566H43.8486ZM65.6772 46.1583H42.2861C41.5059 46.1583 40.8736 45.526 40.8736 44.7458V38.0039C40.8736 37.2237 41.5059 36.5914 42.2861 36.5914H65.6772C66.4574 36.5914 67.0897 37.2237 67.0897 38.0039V44.7458C67.0897 45.5255 66.4574 46.1583 65.6772 46.1583Z" fill="#C39F7B" stroke="#172031" stroke-width="0.3"/>
<path d="M51.541 56.2537V56.4037H51.691H56.3224H56.4724V56.2537V52.6367V52.4867H56.3224H51.691H51.541V52.6367V56.2537ZM64.1147 56.4037H64.2647V56.2537V52.6367V52.4867H64.1147H59.4474H59.2974V52.6367V56.2537V56.4037H59.4474H64.1147ZM43.8486 52.4867H43.6986V52.6367V56.2537V56.4037H43.8486H48.566H48.716V56.2537V52.6367V52.4867H48.566H43.8486ZM65.6772 59.2287H42.2861C41.5059 59.2287 40.8736 58.5964 40.8736 57.8162V51.0742C40.8736 50.2946 41.506 49.6617 42.2861 49.6617H65.6772C66.4574 49.6617 67.0897 50.2946 67.0897 51.0742V57.8162C67.0897 58.5964 66.4574 59.2287 65.6772 59.2287Z" fill="#C39F7B" stroke="#172031" stroke-width="0.3"/>
<path d="M33.5855 49.4952L33.5869 49.4962C34.0915 49.8333 34.7723 49.8038 35.2484 49.4281L35.2485 49.428C35.697 49.0747 35.888 48.4596 35.7221 47.9127L35.722 47.9126C35.5523 47.3516 35.0327 46.9432 34.447 46.9118L34.4469 46.9118C33.8398 46.8787 33.2634 47.2562 33.0501 47.8248L33.5855 49.4952ZM33.5855 49.4952C33.0447 49.1426 32.8236 48.4292 33.0501 47.8248L33.5855 49.4952ZM35.8656 47.8692C35.6776 47.2478 35.1039 46.7968 34.4551 46.762L35.8656 47.8692Z" fill="#C39F7B" stroke="#172031" stroke-width="0.3"/>
</svg>
