<svg width="20" height="20" viewBox="0 0 20 20" fill="none" xmlns="http://www.w3.org/2000/svg">
<g clip-path="url(#clip0)">
<path d="M0.585067 15.2719H15.8983C16.0356 15.2719 16.1683 15.2238 16.2736 15.1363C16.4207 15.0131 19.7758 12.1268 19.9804 5.89648H3.53434C3.33054 11.552 0.240637 14.2102 0.208527 14.2367C0.020276 14.3958 -0.0489849 14.6556 0.0357064 14.8868C0.119812 15.1174 0.339001 15.2719 0.585067 15.2719Z" fill="#C39F7B"/>
<path d="M19.4138 2.38091H16.484V1.79495C16.484 1.46681 16.2262 1.20898 15.898 1.20898C15.5699 1.20898 15.3121 1.46681 15.3121 1.79495V2.38091H12.3432V1.79495C12.3432 1.46681 12.0853 1.20898 11.7572 1.20898C11.4291 1.20898 11.1712 1.46681 11.1712 1.79495V2.38091H8.24142V1.79495C8.24142 1.46681 7.9836 1.20898 7.65546 1.20898C7.32732 1.20898 7.06949 1.46681 7.06949 1.79495V2.38091H4.13967C3.81154 2.38091 3.55371 2.63874 3.55371 2.96688V4.72477H19.9998V2.96688C19.9998 2.63874 19.7419 2.38091 19.4138 2.38091Z" fill="#C39F7B"/>
<path d="M17.0259 16.0343C16.7077 16.2992 16.3083 16.4434 15.898 16.4434H3.55371V18.2013C3.55371 18.5252 3.81579 18.7873 4.13967 18.7873H19.4138C19.7377 18.7873 19.9998 18.5252 19.9998 18.2013V11.6328C18.87 14.4045 17.2935 15.8102 17.0259 16.0343Z" fill="#C39F7B"/>
</g>
<defs>
<clipPath id="clip0">
<rect width="20" height="20" fill="white"/>
</clipPath>
</defs>
</svg>
