<svg width="32" height="32" viewBox="0 0 32 32" fill="none" xmlns="http://www.w3.org/2000/svg">
<path d="M23.0968 28.2581C22.7407 28.2581 22.4517 27.969 22.4517 27.6129V26.6452C22.4517 26.289 22.7407 26 23.0968 26C23.4529 26 23.742 26.289 23.742 26.6452V27.6129C23.742 27.969 23.4529 28.2581 23.0968 28.2581Z" fill="#C39F7B" stroke="#C39F7B" stroke-width="0.3"/>
<path d="M23.4193 26.9685H21.1613C20.8051 26.9685 20.5161 26.6795 20.5161 26.3233C20.5161 25.9672 20.8051 25.6782 21.1613 25.6782H23.4193C23.9535 25.6782 24.3871 25.2433 24.3871 24.7104C24.3871 24.1775 23.9535 23.7427 23.4193 23.7427H22.7742C21.529 23.7427 20.5161 22.7298 20.5161 21.4846C20.5161 20.2395 21.529 19.2266 22.7742 19.2266H25.0322C25.3884 19.2266 25.6774 19.5156 25.6774 19.8717C25.6774 20.2279 25.3884 20.5169 25.0322 20.5169H22.7742C22.24 20.5169 21.8064 20.9517 21.8064 21.4846C21.8064 22.0175 22.24 22.4524 22.7742 22.4524H23.4193C24.6645 22.4524 25.6774 23.4653 25.6774 24.7104C25.6774 25.9556 24.6645 26.9685 23.4193 26.9685Z" fill="#C39F7B" stroke="#C39F7B" stroke-width="0.3"/>
<path d="M23.0968 20.1956C22.7407 20.1956 22.4517 19.9065 22.4517 19.5504V18.5827C22.4517 18.2265 22.7407 17.9375 23.0968 17.9375C23.4529 17.9375 23.742 18.2265 23.742 18.5827V19.5504C23.742 19.9065 23.4529 20.1956 23.0968 20.1956Z" fill="#C39F7B" stroke="#C39F7B" stroke-width="0.3"/>
<path d="M23.0966 31.4851C18.4721 31.4851 14.7095 27.7226 14.7095 23.098C14.7095 18.4735 18.4721 14.7109 23.0966 14.7109C27.7211 14.7109 31.4837 18.4735 31.4837 23.098C31.4837 27.7226 27.7211 31.4851 23.0966 31.4851ZM23.0966 16.0013C19.183 16.0013 15.9998 19.1858 15.9998 23.098C15.9998 27.0103 19.183 30.1948 23.0966 30.1948C27.0101 30.1948 30.1933 27.0103 30.1933 23.098C30.1933 19.1858 27.0101 16.0013 23.0966 16.0013Z" fill="#C39F7B" stroke="#C39F7B" stroke-width="0.3"/>
<path d="M11.4839 26.3234H6.96773C5.5445 26.3234 4.38708 25.166 4.38708 23.7427V14.7105H1.80644C1.08256 14.7105 0.516113 14.144 0.516113 13.4202C0.516113 13.0576 0.673533 12.6989 0.936758 12.4627L13.6258 0.689836C13.8722 0.460159 14.2555 0.460159 14.5032 0.689836L18.5806 4.47048V2.45242C18.5806 2.09629 18.8697 1.80726 19.2258 1.80726H23.0968C23.4529 1.80726 23.7419 2.09629 23.7419 2.45242V9.25629L25.8722 11.2447C26.1329 11.4873 26.1458 11.8963 25.9032 12.1556C25.6593 12.4163 25.2516 12.4305 24.991 12.1866L22.6555 10.0073C22.5264 9.88596 22.4516 9.71564 22.4516 9.53629V3.09758H19.871V5.94919C19.871 6.20597 19.7187 6.43822 19.4839 6.54016C19.2477 6.64209 18.9742 6.59693 18.7871 6.42145L14.0645 2.04209L1.80644 13.415L5.03224 13.4202C5.38837 13.4202 5.6774 13.7092 5.6774 14.0653V23.7427C5.6774 24.455 6.25676 25.0331 6.96773 25.0331H11.4839C11.84 25.0331 12.129 25.3221 12.129 25.6782C12.129 26.0344 11.84 26.3234 11.4839 26.3234Z" fill="#C39F7B" stroke="#C39F7B" stroke-width="0.3"/>
</svg>
