<svg width="20" height="20" viewBox="0 0 20 20" fill="none" xmlns="http://www.w3.org/2000/svg">
<path d="M19.4141 18.8281H15.2532C15.0423 17.7936 14.2794 16.9293 13.2911 16.604C13.8818 15.1819 14.199 13.7522 14.199 12.3438C14.199 10.2119 13.5111 8.04828 12.1534 5.89844H13.5547C13.8786 5.89844 14.1406 5.63637 14.1406 5.3125C14.1406 4.98863 13.8786 4.72656 13.5547 4.72656H8.32008C6.92055 3.1975 5.48203 2.08461 4.76562 1.57199V0.585938C4.76562 0.26207 4.50355 0 4.17969 0C3.85582 0 3.59375 0.26207 3.59375 0.585938V16.5046C2.44754 16.7382 1.54289 17.6819 1.3093 18.8281H0.585938C0.26207 18.8281 0 19.0902 0 19.4141C0 19.7379 0.26207 20 0.585938 20C11.1687 20 8.9432 20 19.4141 20C19.7379 20 20 19.7379 20 19.4141C20 19.0902 19.7379 18.8281 19.4141 18.8281ZM10.0076 9.41406H8.71066C8.51434 9.01008 8.29602 8.61828 8.05086 8.24219H9.42215C9.6398 8.62227 9.83891 9.01188 10.0076 9.41406ZM7.73875 5.89844C8.06078 6.26965 8.37793 6.65727 8.67527 7.07031H7.20742C6.85965 6.64059 6.50527 6.25664 6.15812 5.89844H7.73875ZM4.72656 3.04199C5.2475 3.45203 5.92625 4.0284 6.63738 4.72656H4.72656V3.04199ZM4.72656 6.12531C5.00457 6.3891 5.31687 6.70762 5.6484 7.07031H4.72656V6.12531ZM4.72656 8.24219H6.62043C6.89844 8.6141 7.16215 9.00359 7.39656 9.41406H4.72656V8.24219ZM4.72656 10.5859H7.93828C8.08203 10.9721 8.17684 11.3631 8.23098 11.7578H4.72656V10.5859ZM6.61898 16.4453H4.72656V15.2695H7.39117C7.17297 15.6526 6.91668 16.047 6.61898 16.4453ZM4.72656 14.1016V12.9258H8.23324C8.18273 13.3058 8.0877 13.6996 7.93977 14.1016H4.72656ZM9.42121 16.4453H8.04082C8.29859 16.0498 8.51691 15.6558 8.70406 15.2695H9.99875C9.83672 15.6578 9.64543 16.0522 9.42121 16.4453ZM10.3937 14.1016H9.16637C9.28723 13.7044 9.36758 13.31 9.40848 12.9258H10.5968C10.5624 13.3122 10.4956 13.7066 10.3937 14.1016ZM9.41086 11.7578C9.36781 11.3613 9.28891 10.9709 9.17082 10.5859H10.4056C10.5051 10.9699 10.5663 11.3616 10.6018 11.7578H9.41086Z" fill="#C39F7B"/>
<path d="M14.6875 0C13.7182 0 12.9297 0.788516 12.9297 1.75781C12.9297 2.72711 13.7182 3.51562 14.6875 3.51562C15.6568 3.51562 16.4453 2.72711 16.4453 1.75781C16.4453 0.788516 15.6568 0 14.6875 0Z" fill="#C39F7B"/>
</svg>
