<svg width="80" height="80" viewBox="0 0 80 80" fill="none" xmlns="http://www.w3.org/2000/svg">
<path d="M71.25 43.1625V18.65C75.4837 18.04 78.75 14.3988 78.75 10C78.75 5.17625 74.825 1.25 70 1.25C65.175 1.25 61.25 5.17625 61.25 10H1.25V60H38.8138C39.4637 70.445 48.145 78.75 58.75 78.75C69.7775 78.75 78.75 69.7775 78.75 58.75C78.75 52.4512 75.8163 46.8312 71.25 43.1625ZM70 3.75C73.4463 3.75 76.25 6.55375 76.25 10C76.25 13.4462 73.4463 16.25 70 16.25C66.5537 16.25 63.75 13.4462 63.75 10C63.75 6.55375 66.5537 3.75 70 3.75ZM3.75 12.5H61.6187C61.9175 13.4975 62.3925 14.4163 63.0025 15.2313L55.3575 22.8763C54.8675 22.6413 54.3275 22.5 53.75 22.5C53.1725 22.5 52.6325 22.6413 52.1437 22.8763L49.625 20.3575C49.8587 19.8675 50 19.3275 50 18.75C50 16.6825 48.3175 15 46.25 15C44.1825 15 42.5 16.6825 42.5 18.75C42.5 19.3275 42.6412 19.8675 42.8762 20.3563L36.6075 26.625C36.1175 26.3912 35.5775 26.25 35 26.25C32.9325 26.25 31.25 27.9325 31.25 30C31.25 32.0675 32.9325 33.75 35 33.75C37.0675 33.75 38.75 32.0675 38.75 30C38.75 29.4225 38.6087 28.8825 38.3737 28.3937L44.6425 22.125C45.1325 22.3588 45.6725 22.5 46.25 22.5C46.8275 22.5 47.3675 22.3587 47.8563 22.1237L50.375 24.6425C50.1413 25.1325 50 25.6725 50 26.25C50 28.3175 51.6825 30 53.75 30C55.8175 30 57.5 28.3175 57.5 26.25C57.5 25.6725 57.3588 25.1325 57.1238 24.6437L64.77 16.9987C65.9137 17.8563 67.2712 18.4375 68.75 18.6512V41.4575C65.8037 39.7463 62.395 38.75 58.75 38.75C52.775 38.75 47.4175 41.3975 43.75 45.5662V40H36.25V55H39.115C38.96 55.8162 38.8662 56.6525 38.8138 57.5H3.75V12.5ZM53.75 25C54.4388 25 55 25.56 55 26.25C55 26.94 54.4388 27.5 53.75 27.5C53.0612 27.5 52.5 26.94 52.5 26.25C52.5 25.56 53.0612 25 53.75 25ZM45 18.75C45 18.06 45.5612 17.5 46.25 17.5C46.9388 17.5 47.5 18.06 47.5 18.75C47.5 19.44 46.9388 20 46.25 20C45.5612 20 45 19.44 45 18.75ZM36.25 30C36.25 30.69 35.6888 31.25 35 31.25C34.3112 31.25 33.75 30.69 33.75 30C33.75 29.31 34.3112 28.75 35 28.75C35.6888 28.75 36.25 29.31 36.25 30ZM58.75 68.75C53.2363 68.75 48.75 64.2637 48.75 58.75C48.75 53.2363 53.2363 48.75 58.75 48.75C64.2637 48.75 68.75 53.2363 68.75 58.75C68.75 64.2637 64.2637 68.75 58.75 68.75ZM41.25 49.0887C40.6512 50.1688 40.1562 51.31 39.7638 52.5H38.75V42.5H41.25V49.0887ZM57.5 41.3137V46.3137C51.1925 46.9437 46.25 52.28 46.25 58.75C46.25 60.5788 46.655 62.3125 47.3637 63.88L43.0275 66.3838C41.9 64.0737 41.25 61.4888 41.25 58.75C41.25 49.5225 48.4338 41.9587 57.5 41.3137ZM58.75 76.25C52.7325 76.25 47.415 73.1963 44.265 68.5563L48.6188 66.0425C50.8913 69.19 54.58 71.25 58.75 71.25C62.92 71.25 66.6087 69.19 68.8812 66.0425L73.235 68.5563C70.085 73.1963 64.7675 76.25 58.75 76.25ZM74.4725 66.3838L70.1363 63.88C70.845 62.3125 71.25 60.5788 71.25 58.75C71.25 52.28 66.3075 46.9425 60 46.3137V41.3137C69.0662 41.9587 76.25 49.5225 76.25 58.75C76.25 61.4888 75.6 64.0737 74.4725 66.3838Z" fill="#C39F7B"/>
<path d="M58.75 51.25C54.6137 51.25 51.25 54.6137 51.25 58.75C51.25 62.8862 54.6137 66.25 58.75 66.25C62.8862 66.25 66.25 62.8862 66.25 58.75C66.25 54.6137 62.8862 51.25 58.75 51.25ZM58.75 63.75C55.9925 63.75 53.75 61.5075 53.75 58.75C53.75 55.9925 55.9925 53.75 58.75 53.75C61.5075 53.75 63.75 55.9925 63.75 58.75C63.75 61.5075 61.5075 63.75 58.75 63.75Z" fill="#C39F7B"/>
<path d="M6.25 15H8.75V17.5H6.25V15Z" fill="#C39F7B"/>
<path d="M11.25 15H28.75V17.5H11.25V15Z" fill="#C39F7B"/>
<path d="M6.25 20H8.75V22.5H6.25V20Z" fill="#C39F7B"/>
<path d="M11.25 20H28.75V22.5H11.25V20Z" fill="#C39F7B"/>
<path d="M6.25 25H8.75V27.5H6.25V25Z" fill="#C39F7B"/>
<path d="M11.25 25H28.75V27.5H11.25V25Z" fill="#C39F7B"/>
<path d="M6.25 30H8.75V32.5H6.25V30Z" fill="#C39F7B"/>
<path d="M11.25 30H28.75V32.5H11.25V30Z" fill="#C39F7B"/>
<path d="M6.25 55H13.75V42.5H6.25V55ZM8.75 45H11.25V52.5H8.75V45Z" fill="#C39F7B"/>
<path d="M16.25 55H23.75V45H16.25V55ZM18.75 47.5H21.25V52.5H18.75V47.5Z" fill="#C39F7B"/>
<path d="M26.25 55H33.75V35H26.25V55ZM28.75 37.5H31.25V52.5H28.75V37.5Z" fill="#C39F7B"/>
</svg>
