<svg width="28" height="28" viewBox="0 0 28 28" fill="none" xmlns="http://www.w3.org/2000/svg">
<path d="M22.1701 4.25123L20.7668 5.62854C20.7668 5.62854 20.2971 5.52267 19.9709 5.36386L17.7721 4.29406C17.505 4.16412 17.1758 4.10156 16.8404 4.10156C16.3577 4.10156 15.8606 4.2315 15.5122 4.47789L12.1112 6.86292C11.5203 7.28112 11.3894 8.09874 11.8206 8.68056L12.0222 8.95295C12.2989 9.32543 12.7513 9.52899 13.2037 9.52899C13.4582 9.52899 13.7123 9.46499 13.9356 9.33024L15.5492 8.30038C15.8346 8.12858 16.197 8.04388 16.5632 8.04388C16.9929 8.04388 17.4275 8.16082 17.7456 8.38941L20.0878 10.5353C20.6759 10.9583 21.5902 11.7085 22.1215 12.2008L24.2486 14.1778L27.9999 9.83121L22.1701 4.25123Z" fill="white"/>
<path d="M23.5938 15.7717L20.034 12.4631C19.7246 12.2119 19.035 11.684 19.035 11.684L16.8039 9.64066C16.7568 9.62286 16.6702 9.60216 16.5633 9.60216C16.4522 9.60216 16.3785 9.62478 16.3598 9.63296L14.7418 10.6643C14.2827 10.9415 13.751 11.0873 13.2048 11.0873C12.2418 11.0873 11.3318 10.6363 10.7706 9.87984L10.5695 9.6089C10.1085 8.98714 9.92173 8.22534 10.044 7.46305C10.1657 6.70125 10.581 6.03521 11.2172 5.58573L11.5835 5.32923C11.0551 5.26475 10.4689 5.32105 10.0401 5.5044C10.0401 5.5044 9.32162 5.8201 9.09111 5.91779C8.55693 6.14445 7.80812 6.14109 7.80812 6.14109L6.05063 4.50391L0 10.5141L2.2753 12.8024L2.79216 12.261C3.33115 11.6956 4.09006 11.3707 4.874 11.3707C5.61752 11.3707 6.32253 11.6527 6.85912 12.1643L7.10407 12.3977C7.41928 12.6985 7.65172 13.0527 7.80042 13.4348C8.27059 13.5556 8.70371 13.7942 9.06368 14.1374L9.30719 14.3703C9.86254 14.8987 10.1792 15.6129 10.198 16.3819C10.3664 16.4858 10.5262 16.6085 10.672 16.7481L10.9184 16.9829C11.2634 17.3121 11.5089 17.7067 11.6532 18.1297C12.0892 18.2568 12.4911 18.4863 12.826 18.8054L13.0753 19.0422C14.0772 19.9979 14.2365 21.5095 13.5339 22.6418L13.7206 22.8161C14.251 23.3093 15.0883 23.279 15.5816 22.7487L15.8121 22.4999C16.2948 21.9801 16.2707 21.1697 15.7702 20.6745L17.4772 22.2578C18.0085 22.7501 18.8458 22.7193 19.3391 22.188L19.5696 21.9402C20.0595 21.4128 20.0307 20.5826 19.509 20.0884L19.9479 20.4965C20.4787 20.9893 21.3156 20.958 21.8084 20.4277L22.0394 20.1793C22.5322 19.6481 22.5009 18.8107 21.9705 18.3174L21.6 17.9738C22.1327 18.4387 22.947 18.4031 23.4306 17.8819L23.6626 17.6331C24.1554 17.1013 24.1251 16.264 23.5938 15.7717Z" fill="white"/>
<path d="M11.9988 20.1709L11.7524 19.9366C11.4983 19.6945 11.1711 19.5742 10.8438 19.5742C10.4964 19.5742 10.1489 19.7104 9.89097 19.9809L9.88664 19.9736C10.3857 19.4496 10.366 18.6117 9.84188 18.1122L9.59597 17.8778C9.34284 17.6372 9.01896 17.5179 8.69364 17.5179C8.36496 17.5179 8.03723 17.6396 7.78314 17.8798L8.27641 17.3629C8.77642 16.8388 8.75717 16.0005 8.23213 15.501L7.9867 15.2666C7.73357 15.025 7.40729 14.9057 7.08149 14.9057C6.74318 14.9057 6.40583 15.0342 6.14981 15.2888C6.56127 14.7632 6.52036 13.9981 6.02757 13.5279L5.78262 13.294C5.52853 13.052 5.20032 12.9316 4.87356 12.9316C4.52514 12.9312 4.17817 13.0678 3.92022 13.3383L1.44713 15.9312C0.947601 16.4548 0.967332 17.2931 1.49285 17.7922L1.73732 18.0261C1.98997 18.2667 2.31432 18.3846 2.6382 18.3846C2.93705 18.3846 3.23542 18.284 3.47796 18.0857L2.82636 18.7681C2.32732 19.2927 2.34705 20.13 2.87064 20.63L3.11751 20.8644C3.37161 21.1065 3.69933 21.2268 4.02561 21.2268C4.37403 21.2268 4.72101 21.0906 4.97895 20.8201L5.48762 20.2864C5.03477 20.8124 5.06509 21.6118 5.5728 22.0954L5.81968 22.3298C6.07329 22.5714 6.40102 22.6917 6.72826 22.6917C7.0762 22.6917 7.42365 22.5555 7.68111 22.285L8.49874 21.439C7.99873 21.9636 8.01798 22.8009 8.54302 23.3009L8.78941 23.5353C9.04254 23.7774 9.36979 23.8977 9.69703 23.8977C10.045 23.8977 10.3924 23.7615 10.6499 23.491L12.0431 22.0309C12.5431 21.5083 12.5224 20.6709 11.9988 20.1709Z" fill="white"/>
</svg>
