<svg width="76" height="76" viewBox="0 0 76 76" fill="none" xmlns="http://www.w3.org/2000/svg">
<g clip-path="url(#clip0)">
<path d="M48.1333 48.2615V36.7336C48.1333 34.6385 46.4284 32.9336 44.3333 32.9336H8.86667C6.7716 32.9336 5.06667 34.6385 5.06667 36.7336V48.2615C2.17993 48.8505 0 51.4092 0 54.4669V62.0669V74.7336C0 75.4328 0.567467 76.0003 1.26667 76.0003H6.33333C7.03253 76.0003 7.6 75.4328 7.6 74.7336V70.9336H45.6V74.7336C45.6 75.4328 46.1675 76.0003 46.8667 76.0003H51.9333C52.6325 76.0003 53.2 75.4328 53.2 74.7336V62.0669V54.4669C53.2 51.4092 51.0201 48.8505 48.1333 48.2615ZM7.6 36.7336C7.6 36.0357 8.16873 35.4669 8.86667 35.4669H44.3333C45.0313 35.4669 45.6 36.0357 45.6 36.7336V48.1336H43.0667V43.0669C43.0667 40.9719 41.3617 39.2669 39.2667 39.2669H31.6667C29.5716 39.2669 27.8667 40.9719 27.8667 43.0669V48.1336H25.3333V43.0669C25.3333 40.9719 23.6284 39.2669 21.5333 39.2669H13.9333C11.8383 39.2669 10.1333 40.9719 10.1333 43.0669V48.1336H7.6V36.7336ZM40.5333 43.0669V48.1336H30.4V43.0669C30.4 42.369 30.9687 41.8003 31.6667 41.8003H39.2667C39.9646 41.8003 40.5333 42.369 40.5333 43.0669ZM22.8 43.0669V48.1336H12.6667V43.0669C12.6667 42.369 13.2354 41.8003 13.9333 41.8003H21.5333C22.2313 41.8003 22.8 42.369 22.8 43.0669ZM50.6667 73.4669H48.1333V69.6669C48.1333 68.9677 47.5659 68.4003 46.8667 68.4003H6.33333C5.63413 68.4003 5.06667 68.9677 5.06667 69.6669V73.4669H2.53333V63.3336H50.6667V73.4669ZM50.6667 60.8003H2.53333V54.4669C2.53333 52.3719 4.23827 50.6669 6.33333 50.6669H11.4H24.0667H29.1333H41.8H46.8667C48.9617 50.6669 50.6667 52.3719 50.6667 54.4669V60.8003Z" fill="#C39F7B"/>
<path d="M74.7334 48.1328H57.0001C56.3009 48.1328 55.7334 48.7003 55.7334 49.3995V59.5328V68.3995H58.2667V60.7995H73.4667V68.3995H76V59.5328V49.3995C76 48.7003 75.4326 48.1328 74.7334 48.1328ZM73.4667 58.2661H58.2667V50.6661H73.4667V58.2661Z" fill="#C39F7B"/>
<path d="M68.4002 53.1992H63.3335V55.7326H68.4002V53.1992Z" fill="#C39F7B"/>
<path d="M72.1357 37.5979L69.6024 29.9979C69.4288 29.4811 68.9462 29.1328 68.4003 29.1328H63.3336C62.7877 29.1328 62.3051 29.4811 62.1316 29.9992L59.5982 37.5992C59.469 37.9855 59.5349 38.4099 59.773 38.7405C60.0112 39.0711 60.3937 39.2661 60.8003 39.2661H64.6003V43.0661H62.067V45.5995H69.667V43.0661H67.1336V39.2661H70.9336C71.3402 39.2661 71.7228 39.0711 71.9609 38.7392C72.199 38.4086 72.2636 37.9843 72.1357 37.5979ZM62.5572 36.7328L64.2469 31.6661H67.4883L69.1768 36.7328H62.5572Z" fill="#C39F7B"/>
<path d="M75.2514 16.5769L38.5181 0.1102C38.1875 -0.0367333 37.8113 -0.0367333 37.4819 0.1102L0.7486 16.5769C0.2926 16.7821 0 17.2343 0 17.7333V32.9333H2.53333V18.5529L38 2.65493L73.4667 18.5541V32.9333H76V17.7333C76 17.2343 75.7074 16.7821 75.2514 16.5769Z" fill="#C39F7B"/>
<path d="M46.7438 17.5225L44.2446 17.9431C44.3042 18.2889 44.3333 18.6435 44.3333 18.9995C44.3333 22.4917 41.4922 25.3328 38 25.3328C34.5078 25.3328 31.6666 22.4917 31.6666 18.9995C31.6666 15.5073 34.5078 12.6661 38 12.6661C38.7245 12.6661 39.4364 12.7877 40.1128 13.0271L40.9564 10.6382C40.0076 10.3025 39.0133 10.1328 38 10.1328C33.1106 10.1328 29.1333 14.1101 29.1333 18.9995C29.1333 23.8888 33.1106 27.8661 38 27.8661C42.8893 27.8661 46.8666 23.8888 46.8666 18.9995C46.8666 18.5029 46.8248 18.0064 46.7438 17.5225Z" fill="#C39F7B"/>
<path d="M45.9713 10.5039L38.0002 18.475L36.3624 16.8372L34.5713 18.6283L37.1046 21.1616C37.3516 21.4086 37.6759 21.5328 38.0002 21.5328C38.3244 21.5328 38.6487 21.4086 38.8957 21.1616L47.7624 12.295L45.9713 10.5039Z" fill="#C39F7B"/>
</g>
<defs>
<clipPath id="clip0">
<rect width="76" height="76" fill="white"/>
</clipPath>
</defs>
</svg>
