<svg width="80" height="80" viewBox="0 0 80 80" fill="none" xmlns="http://www.w3.org/2000/svg">
<path d="M65.9375 71.7891H68.2812V74.1328H65.9375V71.7891Z" fill="#C39F7B"/>
<path d="M77.6562 71.7886V48.3511H69.4531V33.1166C69.4531 31.1781 67.8761 29.6009 65.9375 29.6009H57.7344V15.5048L63.0578 14.1453V5.86719L5.96562 20.4475V28.7256L11.2889 27.3661V43.6634H2.34375V71.7884H0V74.1322H63.5938V71.7884H48.3594V55.3822H69.4531V50.6947H75.3125V71.7884H70.625V74.1322H79.9998V71.7884H77.6562V71.7886ZM33.0864 19.3806L8.30937 25.7083V22.2678L60.7141 8.88453V12.325L35.357 18.8008L35.937 21.0716L55.3906 16.1034V29.6009H43.6719V48.3509H27.2656V43.6634H13.6328V26.7678L33.6664 21.6516L33.0864 19.3806ZM48.3594 53.0386H22.5781V50.6948H48.3594V53.0386ZM4.6875 46.0073H24.9219V48.3511H20.2344V55.3823H22.5781V71.7886H20.2344V57.7261H7.03109V71.7886H4.6875V46.0073ZM17.8906 64.7573V67.1011H9.37484V64.7573H17.8906ZM9.37484 62.4136V60.0698H17.8906V62.4136H9.37484ZM17.8906 69.4448V71.7886H9.37484V69.4448H17.8906ZM40.1561 71.7886H30.7811V61.2417H40.1561V71.7886ZM46.0156 71.7886H42.4998V58.898H28.4373V71.7886H24.9217V55.3823H46.0155V71.7886H46.0156ZM67.1094 53.0386H50.7031V48.3511H46.0156V31.9448H65.9375C66.5836 31.9448 67.1094 32.4705 67.1094 33.1167V53.0386Z" fill="#C39F7B"/>
<path d="M49.5312 44.8359H63.5938V35.4609H49.5312V44.8359ZM51.875 37.8047H61.25V42.4922H51.875V37.8047Z" fill="#C39F7B"/>
<path d="M40.1567 29.6016H17.1484V40.1484H40.1569V29.6016H40.1567ZM19.4922 31.9453H27.4808V37.8047H19.4922V31.9453ZM37.813 37.8045H29.8244V31.9452H37.813V37.8045Z" fill="#C39F7B"/>
<path d="M71.7969 58.8984H51.875V68.2734H71.7969V58.8984ZM54.2188 61.2422H60.6641V65.9297H54.2188V61.2422ZM69.4531 65.9297H63.0078V61.2422H69.4531V65.9297Z" fill="#C39F7B"/>
<path d="M50.7031 19.7578H53.0469V22.1016H50.7031V19.7578Z" fill="#C39F7B"/>
<path d="M50.7031 24.4453H53.0469V26.7891H50.7031V24.4453Z" fill="#C39F7B"/>
</svg>
