<svg width="60" height="60" viewBox="0 0 60 60" fill="none" xmlns="http://www.w3.org/2000/svg">
<path d="M45 20.625C42.775 20.625 40.5999 21.2848 38.7498 22.521C36.8998 23.7571 35.4578 25.5141 34.6064 27.5698C33.7549 29.6255 33.5321 31.8875 33.9662 34.0698C34.4003 36.252 35.4717 38.2566 37.0451 39.8299C38.6184 41.4033 40.623 42.4747 42.8052 42.9088C44.9875 43.3429 47.2495 43.1201 49.3052 42.2686C51.3609 41.4171 53.1179 39.9752 54.354 38.1252C55.5902 36.2751 56.25 34.1 56.25 31.875C56.2466 28.8923 55.0603 26.0328 52.9512 23.9237C50.8422 21.8147 47.9827 20.6283 45 20.625ZM45 41.25C43.1458 41.25 41.3332 40.7002 39.7915 39.67C38.2498 38.6399 37.0482 37.1757 36.3386 35.4627C35.6291 33.7496 35.4434 31.8646 35.8051 30.046C36.1669 28.2275 37.0598 26.557 38.3709 25.2459C39.682 23.9348 41.3525 23.0419 43.171 22.6801C44.9896 22.3184 46.8746 22.5041 48.5877 23.2136C50.3007 23.9232 51.7649 25.1248 52.795 26.6665C53.8252 28.2082 54.375 30.0208 54.375 31.875C54.3722 34.3605 53.3835 36.7435 51.626 38.501C49.8685 40.2585 47.4855 41.2472 45 41.25Z" fill="#C39F7B" stroke="#C39F7B"/>
<path d="M45 29.0625H46.875C47.1236 29.0625 47.3621 28.9637 47.5379 28.7879C47.7137 28.6121 47.8125 28.3736 47.8125 28.125C47.8125 27.8764 47.7137 27.6379 47.5379 27.4621C47.3621 27.2863 47.1236 27.1875 46.875 27.1875H45.9375V26.25C45.9375 26.0014 45.8387 25.7629 45.6629 25.5871C45.4871 25.4113 45.2486 25.3125 45 25.3125C44.7514 25.3125 44.5129 25.4113 44.3371 25.5871C44.1613 25.7629 44.0625 26.0014 44.0625 26.25V27.3488C43.4373 27.5701 42.9104 28.0053 42.5749 28.5775C42.2394 29.1496 42.117 29.8219 42.2291 30.4756C42.3413 31.1293 42.6809 31.7224 43.1879 32.15C43.6949 32.5776 44.3367 32.8122 45 32.8125C45.2486 32.8125 45.4871 32.9113 45.6629 33.0871C45.8387 33.2629 45.9375 33.5014 45.9375 33.75C45.9375 33.9986 45.8387 34.2371 45.6629 34.4129C45.4871 34.5887 45.2486 34.6875 45 34.6875H43.125C42.8764 34.6875 42.6379 34.7863 42.4621 34.9621C42.2863 35.1379 42.1875 35.3764 42.1875 35.625C42.1875 35.8736 42.2863 36.1121 42.4621 36.2879C42.6379 36.4637 42.8764 36.5625 43.125 36.5625H44.0625V37.5C44.0625 37.7486 44.1613 37.9871 44.3371 38.1629C44.5129 38.3387 44.7514 38.4375 45 38.4375C45.2486 38.4375 45.4871 38.3387 45.6629 38.1629C45.8387 37.9871 45.9375 37.7486 45.9375 37.5V36.4012C46.5627 36.1799 47.0896 35.7447 47.4251 35.1725C47.7606 34.6004 47.883 33.9281 47.7709 33.2744C47.6587 32.6207 47.3191 32.0276 46.8121 31.6C46.3051 31.1724 45.6633 30.9378 45 30.9375C44.7514 30.9375 44.5129 30.8387 44.3371 30.6629C44.1613 30.4871 44.0625 30.2486 44.0625 30C44.0625 29.7514 44.1613 29.5129 44.3371 29.3371C44.5129 29.1613 44.7514 29.0625 45 29.0625Z" fill="#C39F7B" stroke="#C39F7B"/>
<path d="M53.783 43.7483L34.792 48.7031L30.5546 47.0081L32.8991 46.4248C33.6366 46.2406 34.2791 45.7884 34.7015 45.1564C35.1238 44.5243 35.2957 43.7577 35.1837 43.0058C35.0717 42.254 34.6838 41.5707 34.0955 41.0892C33.5073 40.6078 32.7609 40.3625 32.0017 40.4013L15.9558 41.25L12.1875 41.2472V40.3125C12.1875 40.0639 12.0887 39.8254 11.9129 39.6496C11.7371 39.4738 11.4986 39.375 11.25 39.375H5.07586L11.6384 32.8125H18.75C18.8731 32.8125 18.995 32.7883 19.1088 32.7412C19.2225 32.694 19.3259 32.625 19.4129 32.5379L33.2007 18.75H41.25C41.3731 18.75 41.495 18.7258 41.6088 18.6786C41.7225 18.6315 41.8259 18.5625 41.9129 18.4754L55.3125 5.07586V8.4375C55.3125 8.68614 55.4113 8.9246 55.5871 9.10041C55.7629 9.27623 56.0014 9.375 56.25 9.375C56.4986 9.375 56.7371 9.27623 56.9129 9.10041C57.0887 8.9246 57.1875 8.68614 57.1875 8.4375V2.8125C57.1875 2.56386 57.0887 2.3254 56.9129 2.14959C56.7371 1.97377 56.4986 1.875 56.25 1.875H50.625C50.3764 1.875 50.1379 1.97377 49.9621 2.14959C49.7863 2.3254 49.6875 2.56386 49.6875 2.8125C49.6875 3.06114 49.7863 3.2996 49.9621 3.47541C50.1379 3.65123 50.3764 3.75 50.625 3.75H53.9866L40.8616 16.875H32.8125C32.6894 16.875 32.5675 16.8992 32.4537 16.9464C32.34 16.9935 32.2366 17.0625 32.1496 17.1496L18.3618 30.9375H11.25C11.1269 30.9375 11.005 30.9617 10.8912 31.0089C10.7775 31.056 10.6741 31.125 10.5871 31.2121L2.14957 39.6496C2.06239 39.7365 1.99325 39.8399 1.94613 39.9536C1.89901 40.0674 1.87484 40.1894 1.875 40.3125V57.1875C1.875 57.4361 1.97377 57.6746 2.14959 57.8504C2.3254 58.0262 2.56386 58.125 2.8125 58.125H11.25C11.4986 58.125 11.7371 58.0262 11.9129 57.8504C12.0887 57.6746 12.1875 57.4361 12.1875 57.1875V56.1264L17.8125 55.328L33.5782 59.0375C33.7614 59.0806 33.9533 59.0675 34.129 59L55.9845 50.5941C56.8433 50.2637 57.5432 49.6172 57.9403 48.7871C58.3374 47.957 58.4017 47.0064 58.12 46.1304C57.8383 45.2544 57.2319 44.5194 56.4253 44.0765C55.6188 43.6335 54.6733 43.5161 53.7829 43.7483H53.783ZM10.3125 56.25H3.75V41.25H10.3125V56.25ZM16.0297 43.1237L32.0977 42.2734C32.312 42.2627 32.5252 42.3104 32.7145 42.4114C32.9038 42.5125 33.0621 42.6631 33.1725 42.8471C33.2828 43.0311 33.3411 43.2417 33.3411 43.4563C33.341 43.6709 33.2827 43.8814 33.1723 44.0654C33.0927 44.1989 32.9875 44.3153 32.8626 44.4078C32.7378 44.5003 32.5958 44.5672 32.445 44.6045L23.2106 46.9024C23.0904 46.9314 22.9771 46.984 22.8773 47.0569C22.7774 47.1299 22.693 47.222 22.6289 47.3277C22.5648 47.4335 22.5222 47.5509 22.5037 47.6731C22.4851 47.7954 22.491 47.9202 22.5208 48.0402C22.5507 48.1602 22.604 48.2731 22.6777 48.3724C22.7514 48.4717 22.844 48.5555 22.9502 48.6188C23.0564 48.6822 23.1741 48.7239 23.2965 48.7416C23.4189 48.7593 23.5436 48.7526 23.6634 48.7219L27.4418 47.7817L34.3816 50.5576C34.5677 50.6319 34.7726 50.6448 34.9664 50.5943L54.2555 45.5623C54.682 45.4519 55.1346 45.5088 55.5205 45.7212C55.9064 45.9337 56.1965 46.2857 56.3313 46.7052C56.4661 47.1246 56.4355 47.5797 56.2456 47.9772C56.0558 48.3748 55.7211 48.6847 55.3102 48.8435L33.7266 57.1461L18.0703 53.4625C17.9568 53.4356 17.8393 53.4303 17.7239 53.4469L12.1875 54.2326V43.1222L16.0297 43.1237Z" fill="#C39F7B" stroke="#C39F7B"/>
</svg>
