<svg width="80" height="80" viewBox="0 0 80 80" fill="none" xmlns="http://www.w3.org/2000/svg">
<path d="M28.75 52.5H31.25V49.937C32.0088 49.7821 32.683 49.351 33.142 48.7272C33.601 48.1035 33.812 47.3315 33.7342 46.561C33.6564 45.7905 33.2952 45.0763 32.7207 44.557C32.1463 44.0376 31.3994 43.75 30.625 43.75H29.375C29.2093 43.75 29.0503 43.6842 28.9331 43.5669C28.8159 43.4497 28.75 43.2908 28.75 43.125C28.75 42.9592 28.8159 42.8003 28.9331 42.6831C29.0503 42.5658 29.2093 42.5 29.375 42.5H33.75V40H31.25V37.5H28.75V40.063C27.9912 40.2179 27.317 40.649 26.858 41.2728C26.399 41.8965 26.188 42.6685 26.2658 43.439C26.3437 44.2095 26.7048 44.9237 27.2793 45.443C27.8537 45.9624 28.6006 46.25 29.375 46.25H30.625C30.7908 46.25 30.9497 46.3158 31.067 46.4331C31.1842 46.5503 31.25 46.7092 31.25 46.875C31.25 47.0408 31.1842 47.1997 31.067 47.3169C30.9497 47.4342 30.7908 47.5 30.625 47.5H26.25V50H28.75V52.5Z" fill="#C39F7B"/>
<path d="M75 33.75C75 33.4185 74.8683 33.1005 74.6339 32.8661C74.3994 32.6317 74.0815 32.5 73.75 32.5H66.25C65.9184 32.5 65.6005 32.6317 65.3661 32.8661C65.1317 33.1005 65 33.4185 65 33.75V38.75H58.75C58.4184 38.75 58.1005 38.8817 57.8661 39.1161C57.6317 39.3505 57.5 39.6685 57.5 40V43.75H51.25C50.9184 43.75 50.6005 43.8817 50.3661 44.1161C50.1317 44.3505 50 44.6685 50 45V56.7974L44.9611 50.7507C45.9148 48.68 46.3505 46.4084 46.2305 44.1318C46.1105 41.8551 45.4384 39.6419 44.2723 37.6829L49.1884 33.75H57.5V31.25H48.75C48.4661 31.25 48.1907 31.3466 47.9691 31.5239L42.8051 35.6551C42.769 35.6134 42.7349 35.5703 42.6982 35.529L36.4475 28.497L37.5765 25.6744C37.7609 25.2134 37.8097 24.7092 37.717 24.2214C37.6244 23.7336 37.3942 23.2824 37.0535 22.9211C36.7129 22.5598 36.276 22.3034 35.7945 22.1822C35.3129 22.061 34.8068 22.0801 34.3357 22.2371C34.3141 22.2444 34.2907 22.2443 34.2692 22.237C34.2476 22.2296 34.2291 22.2153 34.2165 22.1964L32.9834 20.3467C32.6559 19.8555 32.2123 19.4528 31.6918 19.1743C31.1714 18.8957 30.5902 18.75 29.9999 18.75C29.4096 18.75 28.8285 18.8957 28.308 19.1743C27.7876 19.4528 27.3439 19.8555 27.0165 20.3467L25.7835 22.1964C25.7709 22.2153 25.7523 22.2296 25.7308 22.2369C25.7092 22.2443 25.6859 22.2444 25.6643 22.2371C25.1932 22.0801 24.687 22.061 24.2055 22.1822C23.724 22.3034 23.2871 22.5597 22.9465 22.921C22.6058 23.2823 22.3756 23.7334 22.2829 24.2213C22.1903 24.7091 22.239 25.2133 22.4234 25.6743L23.5524 28.497L17.3018 35.5289C15.5791 37.4659 14.4258 39.8417 13.9694 42.3935C13.5131 44.9453 13.7715 47.5735 14.716 49.9876L2.98779 59.0092L4.51215 60.9908L7.07627 59.0183L17 72.2499L13 75.25L14.4999 77.2501L19.3801 73.5899L27.9924 69.899C28.2641 69.7825 28.4857 69.5735 28.618 69.3091L30.8764 64.792L41.3268 61.6571C41.964 61.4662 42.5311 61.0925 42.9579 60.5823C43.3848 60.0721 43.6525 59.4479 43.728 58.7871C43.8035 58.1262 43.6834 57.4577 43.3827 56.8644C43.0819 56.2711 42.6136 55.7791 42.0359 55.4494L43.6299 53.0585L49.0397 59.5502C49.157 59.691 49.3038 59.8042 49.4697 59.882C49.6357 59.9597 49.8167 60 50 60H77.5V57.5H75V33.75ZM24.7654 24.6362C24.7776 24.6199 24.795 24.6082 24.8148 24.6032C24.8345 24.5982 24.8554 24.6003 24.8739 24.6089C25.4158 24.7886 26.0017 24.7855 26.5418 24.6002C27.0818 24.4149 27.5462 24.0576 27.8637 23.5831L29.0966 21.7334C29.1958 21.5847 29.3301 21.4628 29.4877 21.3784C29.6453 21.2941 29.8212 21.25 29.9999 21.25C30.1786 21.25 30.3546 21.2941 30.5122 21.3784C30.6697 21.4628 30.8041 21.5847 30.9032 21.7334L32.1363 23.5831C32.4539 24.0575 32.9183 24.4147 33.4583 24.6C33.9983 24.7853 34.5841 24.7884 35.1261 24.6089C35.1449 24.6027 35.165 24.6019 35.1842 24.6067C35.2034 24.6116 35.2209 24.6218 35.2344 24.6362C35.248 24.6506 35.2572 24.6686 35.2609 24.688C35.2646 24.7075 35.2627 24.7276 35.2553 24.7459L34.1537 27.5H25.8462L24.7446 24.7458C24.7349 24.7279 24.7317 24.7073 24.7355 24.6873C24.7393 24.6673 24.7499 24.6493 24.7654 24.6362ZM16.25 44.8709C16.2489 42.0391 17.2882 39.3056 19.1703 37.1898L25.5613 30H27.1948C26.5495 30.9665 26.1346 32.0682 25.9819 33.2202C25.8292 34.3723 25.9429 35.544 26.3141 36.6452L28.6858 35.8548C28.3803 34.9486 28.3349 33.9749 28.5546 33.0441C28.7743 32.1133 29.2504 31.2628 29.9289 30.5888L30 30.5177L30.0709 30.5887C30.7495 31.2626 31.2256 32.1132 31.4453 33.044C31.6651 33.9748 31.6196 34.9485 31.3141 35.8548L33.6858 36.6452C34.0571 35.544 34.1707 34.3723 34.018 33.2202C33.8654 32.0682 33.4504 30.9665 32.8052 30H34.4387L40.8296 37.1899C42.5279 39.1005 43.5451 41.5201 43.7222 44.0702C43.8993 46.6203 43.2262 49.1572 41.8082 51.2842L39.331 55H23.2725L24.4423 52.6604C24.8081 51.9266 24.999 51.1182 25 50.2983C25 49.5423 24.7883 48.8014 24.3889 48.1595C23.9895 47.5176 23.4183 47.0004 22.7401 46.6664C22.0618 46.3324 21.3036 46.1951 20.5513 46.2698C19.799 46.3446 19.0827 46.6286 18.4835 47.0895L16.7988 48.3854C16.4367 47.249 16.2516 46.0636 16.25 44.8709ZM40.6084 59.2624L29.6408 62.5526C29.4775 62.6017 29.3259 62.6836 29.1954 62.7934C29.0649 62.9031 28.9582 63.0384 28.882 63.1909L26.5867 67.7814L19.1605 70.9641L9.05794 57.494L20.0077 49.071C20.2369 48.8948 20.5108 48.7862 20.7986 48.7576C21.0863 48.729 21.3763 48.7815 21.6357 48.9093C21.895 49.037 22.1135 49.2348 22.2662 49.4803C22.419 49.7258 22.5 50.0092 22.5 50.2983C22.4994 50.7301 22.3989 51.1558 22.2063 51.5422L20.132 55.6909C20.0367 55.8815 19.9917 56.0933 20.0012 56.3061C20.0108 56.519 20.0746 56.7259 20.1866 56.9071C20.2986 57.0884 20.4551 57.238 20.6412 57.3418C20.8273 57.4455 21.0369 57.5 21.25 57.5H40.3498C40.5659 57.5 40.7748 57.5777 40.9383 57.719C41.1018 57.8603 41.2091 58.0557 41.2404 58.2695C41.2718 58.4833 41.2252 58.7012 41.1092 58.8835C40.9931 59.0658 40.8154 59.2003 40.6084 59.2624H40.6084ZM52.5 46.25H57.5V57.5H52.5V46.25ZM60 41.25H65V57.5H60V41.25ZM67.5 57.5V35H72.5V57.5H67.5Z" fill="#C39F7B"/>
<path d="M63.75 2.5C61.0305 2.5 58.3721 3.30642 56.1109 4.81729C53.8497 6.32816 52.0874 8.47562 51.0467 10.9881C50.006 13.5006 49.7337 16.2653 50.2642 18.9325C50.7948 21.5997 52.1043 24.0497 54.0273 25.9727C55.9503 27.8957 58.4003 29.2053 61.0675 29.7358C63.7348 30.2663 66.4994 29.994 69.0119 28.9533C71.5244 27.9126 73.6718 26.1503 75.1827 23.8891C76.6936 21.6279 77.5 18.9695 77.5 16.25C77.4959 12.6045 76.0459 9.10956 73.4682 6.53183C70.8904 3.9541 67.3955 2.50412 63.75 2.5ZM74.9289 15H69.8742C69.6269 13.8001 69.0335 12.6991 68.1672 11.8328C67.301 10.9665 66.1999 10.3731 65 10.1258V5.07111C67.5344 5.35823 69.8964 6.4966 71.6999 8.30012C73.5034 10.1036 74.6418 12.4656 74.9289 15ZM68.9619 19.6941C69.4043 19.0282 69.7141 18.2832 69.8742 17.5H74.9289C74.6938 19.6104 73.8633 21.6103 72.5343 23.2665L68.9619 19.6941ZM63.75 12.5C64.4917 12.5 65.2167 12.7199 65.8334 13.132C66.4501 13.544 66.9307 14.1297 67.2146 14.8149C67.4984 15.5002 67.5726 16.2542 67.428 16.9816C67.2833 17.709 66.9261 18.3772 66.4017 18.9017C65.8772 19.4261 65.209 19.7833 64.4816 19.9279C63.7542 20.0726 63.0002 19.9984 62.3149 19.7146C61.6297 19.4307 61.0441 18.9501 60.632 18.3334C60.2199 17.7167 60 16.9917 60 16.25C60.0011 15.2558 60.3966 14.3026 61.0996 13.5996C61.8026 12.8966 62.7558 12.5011 63.75 12.5ZM52.5 16.25C52.5036 13.4839 53.5248 10.8159 55.369 8.7543C57.2132 6.69271 59.7514 5.3817 62.5 5.07111V10.1258C61.5966 10.3094 60.745 10.6905 60.0063 11.242C59.2675 11.7934 58.6599 12.5015 58.227 13.3153C57.7941 14.1292 57.5466 15.0288 57.5022 15.9496C57.4579 16.8704 57.6178 17.7896 57.9705 18.6413C58.3232 19.493 58.8599 20.2562 59.5422 20.8761C60.2246 21.496 61.0356 21.9572 61.9171 22.2268C62.7987 22.4964 63.729 22.5676 64.6413 22.4354C65.5536 22.3031 66.4254 21.9707 67.1941 21.4619L70.7665 25.0343C69.1127 26.3583 67.1184 27.188 65.0134 27.4278C62.9085 27.6675 60.7787 27.3076 58.8694 26.3895C56.9602 25.4713 55.3492 24.0323 54.2223 22.2384C53.0954 20.4444 52.4983 18.3685 52.5 16.25Z" fill="#C39F7B"/>
</svg>
