<svg width="149" height="56" viewBox="0 0 149 56" fill="none" xmlns="http://www.w3.org/2000/svg">
<g clip-path="url(#clip0)">
<path d="M0.80127 0.800781V48.5425H35.0993V44.0239H5.4801V5.31938H45.4985V33.9772H50.1774V0.800781H0.80127Z" fill="white"/>
<path d="M56.3863 37.6055H39.0249V54.9748H56.3863V37.6055Z" fill="#C39F7B"/>
<path d="M30.3163 13.9883L25.4452 27.8805L20.6382 13.9883H13.1953V35.3555H19.1159V29.8755L18.7314 22.5368L23.4583 35.3555H27.4561L32.2551 22.4005L31.8626 29.8915V35.3555H37.7752V13.9883H30.3163Z" fill="white"/>
<path d="M64.9872 12.1636L67.6229 19.1671L70.2523 12.1636H72.3044V21.3008H70.723V18.2885L70.8799 14.2596L68.1814 21.3008H67.0455L64.3533 14.2659L64.5102 18.2885V21.3008H62.9288V12.1636H64.9872ZM79.4146 19.1734H75.8752L75.1347 21.3008H73.4842L76.9358 12.1636H78.3603L81.8181 21.3008H80.1614L79.4146 19.1734ZM76.3207 17.8932H78.969L77.6449 14.1028L76.3207 17.8932ZM87.6355 18.9475C87.6355 18.5458 87.4933 18.2362 87.2088 18.0187C86.9285 17.8011 86.4202 17.5815 85.6838 17.3598C84.9475 17.138 84.3618 16.8912 83.9267 16.6192C83.0941 16.0963 82.6779 15.4143 82.6779 14.5734C82.6779 13.8371 82.977 13.2305 83.5753 12.7535C84.1777 12.2766 84.958 12.0381 85.916 12.0381C86.5519 12.0381 87.1188 12.1552 87.6167 12.3895C88.1146 12.6238 88.5057 12.9585 88.7902 13.3936C89.0747 13.8245 89.217 14.3036 89.217 14.8307H87.6355C87.6355 14.3538 87.4849 13.9814 87.1837 13.7137C86.8866 13.4417 86.4599 13.3058 85.9035 13.3058C85.3847 13.3058 84.981 13.4166 84.6923 13.6384C84.4078 13.8601 84.2656 14.1697 84.2656 14.5671C84.2656 14.9018 84.4204 15.1821 84.73 15.4081C85.0395 15.6298 85.55 15.8473 86.2612 16.0607C86.9724 16.2699 87.5435 16.5105 87.9744 16.7824C88.4053 17.0502 88.7212 17.3598 88.922 17.7112C89.1228 18.0584 89.2232 18.4663 89.2232 18.9349C89.2232 19.6963 88.9304 20.303 88.3447 20.7548C87.7631 21.2025 86.9724 21.4263 85.9725 21.4263C85.3115 21.4263 84.7028 21.305 84.1463 21.0623C83.5941 20.8155 83.1632 20.4766 82.8536 20.0457C82.5482 19.6148 82.3955 19.1127 82.3955 18.5396H83.9832C83.9832 19.0583 84.1547 19.46 84.4978 19.7445C84.8408 20.0289 85.3324 20.1712 85.9725 20.1712C86.5248 20.1712 86.9389 20.0603 87.2151 19.8386C87.4954 19.6127 87.6355 19.3156 87.6355 18.9475ZM97.2182 13.4438H94.3692V21.3008H92.794V13.4438H89.97V12.1636H97.2182V13.4438ZM103.764 17.2217H100.011V20.0331H104.397V21.3008H98.4231V12.1636H104.354V13.4438H100.011V15.9666H103.764V17.2217ZM109.048 17.7802H107.278V21.3008H105.69V12.1636H108.903C109.958 12.1636 110.771 12.4 111.344 12.8728C111.918 13.3455 112.204 14.0295 112.204 14.9248C112.204 15.5357 112.056 16.0482 111.759 16.4624C111.466 16.8724 111.056 17.1882 110.529 17.41L112.581 21.2192V21.3008H110.88L109.048 17.7802ZM107.278 16.5063H108.91C109.445 16.5063 109.863 16.3724 110.165 16.1046C110.466 15.8327 110.616 15.4625 110.616 14.9939C110.616 14.5044 110.476 14.1258 110.196 13.858C109.92 13.5903 109.506 13.4522 108.953 13.4438H107.278V16.5063ZM115.298 17.9057V21.3008H113.71V12.1636H117.206C118.227 12.1636 119.036 12.4293 119.634 12.9606C120.237 13.4919 120.538 14.1948 120.538 15.0692C120.538 15.9645 120.243 16.6611 119.653 17.1589C119.068 17.6568 118.245 17.9057 117.187 17.9057H115.298ZM115.298 16.6318H117.206C117.771 16.6318 118.202 16.5 118.499 16.2364C118.796 15.9687 118.944 15.5838 118.944 15.0817C118.944 14.5881 118.794 14.1948 118.492 13.9019C118.191 13.6049 117.777 13.4522 117.25 13.4438H115.298V16.6318ZM123.607 21.3008H122.025V12.1636H123.607V21.3008ZM130.899 17.2217H127.146V20.0331H131.533V21.3008H125.559V12.1636H131.489V13.4438H127.146V15.9666H130.899V17.2217ZM139.798 18.3262C139.706 19.301 139.346 20.0624 138.718 20.6105C138.091 21.1544 137.256 21.4263 136.214 21.4263C135.486 21.4263 134.844 21.2548 134.288 20.9117C133.736 20.5645 133.309 20.0729 133.008 19.437C132.706 18.801 132.549 18.0626 132.537 17.2217V16.3682C132.537 15.5064 132.69 14.747 132.995 14.0902C133.3 13.4334 133.738 12.9271 134.307 12.5715C134.88 12.2159 135.541 12.0381 136.29 12.0381C137.298 12.0381 138.11 12.3121 138.725 12.8602C139.34 13.4083 139.697 14.1822 139.798 15.1821H138.216C138.141 14.5253 137.949 14.0525 137.639 13.7639C137.334 13.471 136.884 13.3246 136.29 13.3246C135.599 13.3246 135.068 13.5777 134.696 14.0839C134.328 14.586 134.139 15.3244 134.131 16.2992V17.1087C134.131 18.0961 134.307 18.8491 134.658 19.3679C135.014 19.8867 135.532 20.1461 136.214 20.1461C136.838 20.1461 137.306 20.0059 137.62 19.7256C137.934 19.4453 138.133 18.9788 138.216 18.3262H139.798ZM146.563 17.2217H142.81V20.0331H147.197V21.3008H141.222V12.1636H147.153V13.4438H142.81V15.9666H146.563V17.2217ZM66.2862 33.7802H64.5165V37.3008H62.9288V28.1636H66.1418C67.1961 28.1636 68.0099 28.4 68.583 28.8728C69.1562 29.3455 69.4428 30.0295 69.4428 30.9248C69.4428 31.5357 69.2943 32.0482 68.9972 32.4624C68.7044 32.8724 68.2944 33.1882 67.7672 33.41L69.8193 37.2192V37.3008H68.1186L66.2862 33.7802ZM64.5165 32.5063H66.1481C66.6836 32.5063 67.102 32.3724 67.4032 32.1046C67.7045 31.8327 67.8551 31.4625 67.8551 30.9939C67.8551 30.5044 67.7149 30.1258 67.4346 29.858C67.1585 29.5903 66.7443 29.4522 66.1921 29.4438H64.5165V32.5063ZM76.2894 33.2217H72.5366V36.0331H76.9232V37.3008H70.9489V28.1636H76.8793V29.4438H72.5366V31.9666H76.2894V33.2217ZM83.3305 35.1734H79.7911L79.0506 37.3008H77.4001L80.8517 28.1636H82.2762L85.734 37.3008H84.0773L83.3305 35.1734ZM80.2367 33.8932H82.8849L81.5608 30.1028L80.2367 33.8932ZM88.3635 36.0331H92.5116V37.3008H86.7758V28.1636H88.3635V36.0331ZM99.0382 29.4438H96.1891V37.3008H94.6139V29.4438H91.7899V28.1636H99.0382V29.4438ZM103.324 32.4937L105.427 28.1636H107.184L104.121 33.9371V37.3008H102.527V33.9371L99.4586 28.1636H101.222L103.324 32.4937Z" fill="white"/>
</g>
<defs>
<clipPath id="clip0">
<rect width="149" height="56" fill="white"/>
</clipPath>
</defs>
</svg>
