<svg width="20" height="20" viewBox="0 0 20 20" fill="none" xmlns="http://www.w3.org/2000/svg">
<g clip-path="url(#clip0)">
<path d="M17.3123 12.993C16.6847 12.038 14.8938 11.3929 13.1418 11.0263C12.2628 11.6753 11.1773 12.0594 10.0045 12.0594C8.82951 12.0594 7.74313 11.6744 6.86408 11.0254C5.1099 11.3912 3.31469 12.0367 2.68792 12.993C1.72593 14.4578 2.68748 20.0014 2.68748 20.0014H17.3123C17.3123 20.001 18.2739 14.4578 17.3123 12.993ZM9.99969 17.9024C9.54096 17.9024 9.17039 17.5306 9.17039 17.0731C9.17039 16.6157 9.54139 16.2438 9.99969 16.2438C10.458 16.2438 10.829 16.6157 10.829 17.0731C10.829 17.5306 10.458 17.9024 9.99969 17.9024ZM9.99969 15.0584C9.54096 15.0584 9.17039 14.6865 9.17039 14.2291C9.17039 13.7721 9.54139 13.4002 9.99969 13.4002C10.458 13.4002 10.829 13.7725 10.829 14.2291C10.829 14.6865 10.458 15.0584 9.99969 15.0584Z" fill="#C39F7B"/>
<path d="M9.99955 10.724C12.1841 10.724 13.9605 8.94716 13.9605 6.76306C13.9605 6.25501 13.8645 5.77401 13.6895 5.32227H13.109H12.3316C12.5918 5.73953 12.7419 6.23536 12.7419 6.76306C12.7419 8.27543 11.5124 9.50541 9.99955 9.50541C8.48762 9.50541 7.25764 8.275 7.25764 6.76306C7.25764 6.23449 7.40866 5.73953 7.66749 5.32227H6.88184H6.30962C6.13503 5.77401 6.03857 6.25501 6.03857 6.76306C6.03901 8.94716 7.81545 10.724 9.99955 10.724Z" fill="#C39F7B"/>
<path d="M13.1257 0.615425C13.1257 0.267557 12.8394 0 12.4907 0H7.52493C7.1775 0 6.8999 0.267557 6.8999 0.615425V4.41753H13.1257V0.615425Z" fill="#C39F7B"/>
</g>
<defs>
<clipPath id="clip0">
<rect width="20" height="20" fill="white"/>
</clipPath>
</defs>
</svg>
