<svg width="24" height="24" viewBox="0 0 24 24" fill="none" xmlns="http://www.w3.org/2000/svg">
<g clip-path="url(#clip0)">
<path d="M3.10588 20.9881H2.16471C1.77506 20.9881 1.45882 20.6718 1.45882 20.2822C1.45882 19.8925 1.77506 19.5763 2.16471 19.5763H3.10588V17.9763H2.16471C1.77506 17.9763 1.45882 17.6601 1.45882 17.2704C1.45882 16.8808 1.77506 16.5645 2.16471 16.5645H3.10588V14.9645H2.16471C1.77506 14.9645 1.45882 14.6483 1.45882 14.2587C1.45882 13.869 1.77506 13.5528 2.16471 13.5528H3.10588V10.541H0.705882C0.316235 10.541 0 10.8573 0 11.2469V23.294C0 23.6836 0.316235 23.9998 0.705882 23.9998H3.10791C3.10522 23.0614 3.10588 23.6725 3.10588 20.9881Z" fill="white"/>
<path d="M14.7763 0.705882C14.7763 0.316235 14.4601 0 14.0705 0H8.04695C7.6573 0 7.34106 0.316235 7.34106 0.705882V1.6H14.7763V0.705882Z" fill="white"/>
<path d="M19.153 9.41211C16.4805 9.41211 14.3059 11.5867 14.3059 14.2592C14.3059 16.3994 17.1981 19.4686 18.68 20.8069C18.9492 21.0488 19.3563 21.0493 19.6259 20.8069C21.1421 19.4375 24 16.3872 24 14.2592C24 11.5867 21.8254 9.41211 19.153 9.41211ZM20.2824 14.965H18.0236C17.6339 14.965 17.3177 14.6488 17.3177 14.2592C17.3177 13.8695 17.6339 13.5533 18.0236 13.5533H20.2824C20.672 13.5533 20.9883 13.8695 20.9883 14.2592C20.9883 14.6488 20.672 14.965 20.2824 14.965Z" fill="white"/>
<path d="M23.2941 22.5882H17.5999V21.7313C15.681 19.9396 12.8941 16.8764 12.8941 14.2588C12.8941 11.3435 14.8974 8.88749 17.5999 8.19525V3.7176C17.5999 3.32795 17.2837 3.01172 16.8941 3.01172H5.22346C4.83381 3.01172 4.51758 3.32795 4.51758 3.7176V24H23.2941C23.6839 24 24 23.6839 24 23.2941C24 22.9043 23.6839 22.5882 23.2941 22.5882ZM12.7529 4.5176H13.8823C14.2719 4.5176 14.5882 4.83384 14.5882 5.22349C14.5882 5.61313 14.2719 5.92937 13.8823 5.92937H12.7529C12.3632 5.92937 12.047 5.61313 12.047 5.22349C12.047 4.83384 12.3632 4.5176 12.7529 4.5176ZM9.36464 17.9764H8.23523C7.84558 17.9764 7.52935 17.6602 7.52935 17.2706C7.52935 16.8809 7.84558 16.5647 8.23523 16.5647H9.36464C9.75429 16.5647 10.0705 16.8809 10.0705 17.2706C10.0705 17.6602 9.75429 17.9764 9.36464 17.9764ZM9.36464 14.9647H8.23523C7.84558 14.9647 7.52935 14.6484 7.52935 14.2588C7.52935 13.8691 7.84558 13.5529 8.23523 13.5529H9.36464C9.75429 13.5529 10.0705 13.8691 10.0705 14.2588C10.0705 14.6484 9.75429 14.9647 9.36464 14.9647ZM9.36464 11.9529H8.23523C7.84558 11.9529 7.52935 11.6367 7.52935 11.247C7.52935 10.8574 7.84558 10.5411 8.23523 10.5411H9.36464C9.75429 10.5411 10.0705 10.8574 10.0705 11.247C10.0705 11.6367 9.75429 11.9529 9.36464 11.9529ZM9.36464 8.94114H8.23523C7.84558 8.94114 7.52935 8.6249 7.52935 8.23525C7.52935 7.84561 7.84558 7.52937 8.23523 7.52937H9.36464C9.75429 7.52937 10.0705 7.84561 10.0705 8.23525C10.0705 8.6249 9.75429 8.94114 9.36464 8.94114ZM9.36464 5.92937H8.23523C7.84558 5.92937 7.52935 5.61313 7.52935 5.22349C7.52935 4.83384 7.84558 4.5176 8.23523 4.5176H9.36464C9.75429 4.5176 10.0705 4.83384 10.0705 5.22349C10.0705 5.61313 9.75429 5.92937 9.36464 5.92937ZM12.047 8.23525C12.047 7.84561 12.3632 7.52937 12.7529 7.52937H13.8823C14.2719 7.52937 14.5882 7.84561 14.5882 8.23525C14.5882 8.6249 14.2719 8.94114 13.8823 8.94114H12.7529C12.3632 8.94114 12.047 8.6249 12.047 8.23525Z" fill="white"/>
</g>
<defs>
<clipPath id="clip0">
<rect width="24" height="24" fill="white"/>
</clipPath>
</defs>
</svg>
