<svg width="76" height="76" viewBox="0 0 76 76" fill="none" xmlns="http://www.w3.org/2000/svg">
<path d="M43.2511 21.0703H32.749C32.134 21.0703 31.6357 21.5688 31.6357 22.1836V54.4898C31.6357 55.1047 32.134 55.6031 32.749 55.6031H43.2511C43.8661 55.6031 44.3644 55.1047 44.3644 54.4898V22.1836C44.3644 21.5688 43.8661 21.0703 43.2511 21.0703ZM33.8622 23.2969H42.1377V27.5315H33.8622V23.2969ZM33.8622 29.7581H42.1377V33.9928H33.8622V29.7581ZM33.8622 42.6806H42.1377V46.9154H33.8622V42.6806ZM42.1378 53.3765H33.8623V49.1419H42.1378V53.3765ZM42.1378 40.454H33.8623V36.2194H42.1378V40.454Z" fill="#C39F7B"/>
<path d="M26.0208 21.0703H15.5186C14.9037 21.0703 14.4053 21.5688 14.4053 22.1836V67.4124C14.4053 68.0272 14.9037 68.5256 15.5186 68.5256H26.0208C26.6358 68.5256 27.1341 68.0272 27.1341 67.4124V22.1836C27.1341 21.5688 26.6356 21.0703 26.0208 21.0703ZM24.9075 66.2991H16.6318V62.0643H24.9075V66.2991ZM24.9075 59.8377H16.6318V55.6031H24.9075V59.8377ZM24.9075 53.3765H16.6318V49.1419H24.9075V53.3765ZM24.9075 46.9154H16.6318V42.6806H24.9075V46.9154ZM24.9075 40.454H16.6318V36.2194H24.9075V40.454ZM24.9075 33.9928H16.6318V29.7581H24.9075V33.9928ZM24.9075 27.5315H16.6318V23.2969H24.9075V27.5315Z" fill="#C39F7B"/>
<path d="M60.4813 21.0703H49.979C49.364 21.0703 48.8657 21.5688 48.8657 22.1836V67.4124C48.8657 68.0272 49.364 68.5256 49.979 68.5256H60.4813C61.0962 68.5256 61.5945 68.0272 61.5945 67.4124V22.1836C61.5945 21.5688 61.0964 21.0703 60.4813 21.0703ZM51.0924 36.2194H59.3681V40.454H51.0924V36.2194ZM59.368 66.2991H51.0923V62.0643H59.368V66.2991ZM59.3681 59.8377H51.0924V55.6031H59.3681V59.8377ZM59.3681 53.3765H51.0924V49.1419H59.3681V53.3765ZM59.3681 46.9154H51.0924V42.6806H59.3681V46.9154ZM59.3681 33.9928H51.0924V29.7581H59.3681V33.9928ZM59.3681 27.5315H51.0924V23.2969H59.3681V27.5315Z" fill="#C39F7B"/>
<path d="M68.6502 9.73527H66.7015V5.12154C66.7015 5.12154 69.7591 5.12154 69.7636 5.12154C69.7636 4.15625 69.7636 4.75 69.7636 2.89498H39.1133V1.11328C39.1133 0.498453 38.6149 0 38 0H10.4116C9.79675 0 9.2983 0.498453 9.2983 1.11328V9.73527H7.34961C6.73478 9.73527 6.23633 10.2337 6.23633 10.8486V16.3548C6.23633 16.9697 6.73478 17.4681 7.34961 17.4681H9.29815V74.8867C9.29815 75.5015 9.7966 76 10.4114 76H65.5883C66.2033 76 66.7016 75.5015 66.7016 74.8867V17.4683H68.6503C69.2653 17.4683 69.7636 16.9698 69.7636 16.355V10.8486C69.7634 10.2337 69.2651 9.73527 68.6502 9.73527ZM61.184 5.12154H64.4752V9.73527H61.184V5.12154ZM55.6663 5.12154H58.9575V9.73527H55.6663V5.12154ZM50.1486 5.12154H53.4398V9.73527H50.1486V5.12154ZM44.6309 5.12154H47.922V9.73527H44.6309V5.12154ZM39.1133 5.12154H42.4043V9.73527H39.1133V5.12154ZM11.5249 2.22656H36.8867V9.73527H27.1343V5.08532C27.1343 4.47049 26.636 3.97204 26.021 3.97204H15.5187C14.9039 3.97204 14.4054 4.47049 14.4054 5.08532V9.73542H11.5249V2.22656ZM24.9075 6.1986V9.73527H16.6319V6.1986H24.9075ZM44.2479 73.7734H31.7521V61.2296H44.2481L44.2479 73.7734ZM67.5372 15.2417C67.5372 15.2417 28.1637 15.2417 28.1194 15.2417C28.1194 16.9961 28.0545 16.2539 28.1194 17.4683H64.4752V73.7734H46.4745V60.1163C46.4745 59.5015 45.9762 59.003 45.3612 59.003H30.6387C30.0237 59.003 29.5254 59.5015 29.5254 60.1163V73.7734H11.5249V17.4683C11.5249 17.4683 23.6498 17.4683 23.6663 17.4683C23.6663 16.4766 23.6663 16.4023 23.6663 15.2417H8.46289V11.9618H67.5372V15.2417Z" fill="#C39F7B"/>
</svg>
