<svg width="26" height="26" viewBox="0 0 26 26" fill="none" xmlns="http://www.w3.org/2000/svg">
<path d="M13.7616 13.7612V0C6.39054 0.386633 0.387121 6.39 0.000488281 13.7612H13.7616ZM10.7149 11.4761H9.19152V9.95272H10.7149V11.4761ZM6.14477 6.90597H7.66814V8.42934H6.14477V6.90597ZM9.9532 6.59058L11.0303 7.66765L6.90645 11.7915L5.82938 10.7144L9.9532 6.59058Z" fill="white"/>
<path d="M13.7616 15.2852H4.65039C5.02159 20.1394 8.90736 24.0252 13.7616 24.3964V15.2852H13.7616Z" fill="white"/>
<path d="M15.2852 3.04688C15.2852 3.21049 15.2852 26.1789 15.2852 25.9991C21.23 25.6043 25.9996 20.4901 25.9996 14.4469C25.9996 8.40322 21.2314 3.44036 15.2852 3.04688ZM19.8553 13.7613C21.1153 13.7613 22.1404 14.7863 22.1404 16.0463C22.1404 17.0381 21.5017 17.8756 20.617 18.1911V19.8548H19.0936V18.1911C18.2089 17.8756 17.5702 17.0381 17.5702 16.0463H19.0936C19.0936 16.4666 19.435 16.808 19.8553 16.808C20.2755 16.808 20.617 16.4666 20.617 16.0463C20.617 15.6261 20.2755 15.2847 19.8553 15.2847C18.5953 15.2847 17.5702 14.2596 17.5702 12.9996C17.5702 12.0079 18.2089 11.1703 19.0936 10.8548V9.19115H20.617V10.8548C21.5017 11.1703 22.1404 12.0079 22.1404 12.9996H20.617C20.617 12.5793 20.2755 12.2379 19.8553 12.2379C19.435 12.2379 19.0936 12.5793 19.0936 12.9996C19.0936 13.4198 19.435 13.7613 19.8553 13.7613Z" fill="white"/>
</svg>
