<svg width="20" height="20" viewBox="0 0 20 20" fill="none" xmlns="http://www.w3.org/2000/svg">
<path d="M10.586 10.5855V0C4.91591 0.29741 0.297898 4.91538 0.000488281 10.5855H10.586ZM8.24233 8.82776H7.07051V7.65594H8.24233V8.82776ZM4.72685 5.31228H5.89868V6.48411H4.72685V5.31228ZM7.65642 5.06967L8.48494 5.8982L5.31277 9.07037L4.48425 8.24185L7.65642 5.06967Z" fill="#C39F7B"/>
<path d="M10.5858 11.7559H3.57715C3.86268 15.4899 6.85174 18.479 10.5858 18.7645V11.7559H10.5858Z" fill="#C39F7B"/>
<path d="M11.7578 2.34375C11.7578 2.4696 11.7578 20.1376 11.7578 19.9992C16.3307 19.6955 19.9996 15.7616 19.9996 11.113C19.9996 6.464 16.3318 2.64643 11.7578 2.34375ZM15.2733 10.5856C16.2425 10.5856 17.031 11.3741 17.031 12.3433C17.031 13.1062 16.5397 13.7505 15.8592 13.9931V15.2729H14.6874V13.9931C14.0069 13.7505 13.5155 13.1062 13.5155 12.3433H14.6874C14.6874 12.6666 14.95 12.9292 15.2733 12.9292C15.5966 12.9292 15.8592 12.6666 15.8592 12.3433C15.8592 12.0201 15.5966 11.7574 15.2733 11.7574C14.304 11.7574 13.5155 10.9689 13.5155 9.99967C13.5155 9.23682 14.0069 8.59255 14.6874 8.34986V7.07011H15.8592V8.34986C16.5397 8.59255 17.031 9.23682 17.031 9.99967H15.8592C15.8592 9.67641 15.5966 9.41376 15.2733 9.41376C14.95 9.41376 14.6874 9.67641 14.6874 9.99967C14.6874 10.3229 14.95 10.5856 15.2733 10.5856Z" fill="#C39F7B"/>
</svg>
