<svg width="23" height="24" viewBox="0 0 23 24" fill="none" xmlns="http://www.w3.org/2000/svg">
<path d="M9.47852 12.7031H13.5215V14.1094H9.47852V12.7031Z" fill="white"/>
<path d="M18.6596 14.1097H14.8691V14.8128C14.8691 15.2014 14.5677 15.5159 14.1953 15.5159H8.80469C8.43233 15.5159 8.13086 15.2014 8.13086 14.8128V14.1097H4.3404C3.46916 14.1097 2.69865 13.5302 2.4228 12.6677L0 5.08203V20.4378C0 21.6009 0.90686 22.5472 2.02148 22.5472H20.9785C22.0931 22.5472 23 21.6009 23 20.4378V5.08258L20.577 12.6677C20.3014 13.5302 19.5308 14.1097 18.6596 14.1097Z" fill="white"/>
<path d="M14.1954 1.45312H8.80474C7.69012 1.45312 6.78326 2.39941 6.78326 3.5625V4.26562H1.15942L3.70084 12.2225C3.79297 12.5101 4.05022 12.7031 4.34045 12.7031H8.13091V12C8.13091 11.6115 8.43238 11.2969 8.80474 11.2969H14.1954C14.5677 11.2969 14.8692 11.6115 14.8692 12V12.7031H18.6597C18.9499 12.7031 19.2071 12.5101 19.2993 12.2225L21.8409 4.26562H16.2169V3.5625C16.2169 2.39941 15.31 1.45312 14.1954 1.45312ZM8.13091 4.26562V3.5625C8.13091 3.1745 8.43291 2.85938 8.80474 2.85938H14.1954C14.5672 2.85938 14.8692 3.1745 14.8692 3.5625V4.26562H8.13091Z" fill="white"/>
</svg>
