<svg width="31" height="30" viewBox="0 0 31 30" fill="none" xmlns="http://www.w3.org/2000/svg">
<path d="M3.75502 28.0049H27.312C28.1609 28.0065 28.9752 27.6688 29.5739 27.0669C30.1725 26.4652 30.5059 25.6491 30.4999 24.8002V16.6794C30.4999 14.9033 29.0884 13.4412 27.312 13.4412H26.3286L17.6819 5.35135C17.8364 5.03177 17.9163 4.68125 17.9161 4.32628C17.9153 3.01048 16.8477 1.94453 15.5319 1.94531C14.2161 1.9461 13.1502 3.01363 13.151 4.32943C13.1507 4.68335 13.2307 5.03255 13.3851 5.35082L4.7384 13.4412H3.75502C1.9786 13.4412 0.5 14.9033 0.5 16.6794V24.8002C0.5 26.5766 1.9786 28.0049 3.75502 28.0049ZM15.5335 3.02176C16.2563 3.02176 16.8422 3.60769 16.8422 4.33048C16.8422 5.05326 16.2563 5.6392 15.5335 5.6392C14.8107 5.6392 14.2248 5.05326 14.2248 4.33048C14.2256 3.60796 14.811 3.02254 15.5335 3.02176ZM14.0588 6.19158C14.9208 6.88212 16.147 6.88133 17.0082 6.18948L24.7575 13.4412H6.30955L14.0588 6.19158ZM29.4261 24.7834C29.4261 25.9695 28.4645 26.9311 27.2784 26.9311H3.72147C2.53544 26.9311 1.57382 25.9695 1.57382 24.7834V16.6627C1.57382 15.4766 2.53544 14.515 3.72147 14.515H27.2784C28.4645 14.515 29.4261 15.4766 29.4261 16.6627V24.7834Z" fill="#C39F7B" stroke="#C39F7B" stroke-width="0.3"/>
<path d="M7.58075 23.1349C7.84239 23.1349 8.08411 23.0274 8.08411 22.8127V21.2272H8.56072L9.48013 22.9965C9.54489 23.12 9.67676 23.1931 9.8157 23.1832C10.1243 23.1832 10.4735 22.8974 10.4735 22.6355C10.474 22.5923 10.4625 22.5495 10.4399 22.5128L9.62092 21.0284C10.0907 20.8473 10.4331 20.4063 10.4331 19.6547C10.4331 18.5607 9.70166 18.207 8.78199 18.207H7.39278C7.30627 18.2094 7.22395 18.2464 7.1647 18.3098C7.10545 18.373 7.07399 18.4574 7.0774 18.5442V22.8125C7.0774 23.0274 7.31911 23.1349 7.58075 23.1349ZM8.08411 19.1466H8.78199C9.15793 19.1466 9.38602 19.3144 9.38602 19.7842C9.38602 20.254 9.15793 20.4218 8.78199 20.4218H8.08411V19.1466Z" fill="#C39F7B" stroke="#C39F7B" stroke-width="0.3"/>
<path d="M12.1177 23.1064H14.5068C14.7284 23.1064 14.8222 22.8916 14.8222 22.6769C14.8222 22.4287 14.7082 22.2339 14.5068 22.2339H12.7149V21.0929H13.7148C13.9364 21.0929 14.0305 20.8782 14.0305 20.6971C14.0305 20.4824 13.9162 20.2876 13.7148 20.2876H12.7149V19.1466H14.5068C14.7082 19.1466 14.8222 18.9185 14.8222 18.6703C14.8222 18.4553 14.7284 18.207 14.5068 18.207H12.1177C11.8894 18.207 11.6411 18.336 11.6411 18.5507V22.8125C11.6411 23.0274 11.8894 23.1064 12.1177 23.1064Z" fill="#C39F7B" stroke="#C39F7B" stroke-width="0.3"/>
<path d="M16.4729 23.1347C16.7346 23.1347 17.0099 23.0272 17.0099 22.8125V20.5306L18.2782 22.8528C18.4059 23.0877 18.6072 23.1347 18.8487 23.1347C19.1106 23.1347 19.3589 23.0272 19.3589 22.8125V18.5442C19.3589 18.3226 19.1171 18.2285 18.8555 18.2285C18.5939 18.2285 18.3521 18.3226 18.3521 18.5442V20.826L17.2547 18.7521C16.9999 18.2621 16.8471 18.2285 16.4714 18.2285C16.2095 18.2285 15.936 18.3292 15.936 18.5507V22.8125C15.936 23.0272 16.2113 23.1347 16.4729 23.1347Z" fill="#C39F7B" stroke="#C39F7B" stroke-width="0.3"/>
<path d="M20.7817 19.1466H21.7079V22.8127C21.7079 23.0275 21.9832 23.1349 22.2448 23.1349C22.5065 23.1349 22.7817 23.0275 22.7817 22.8127V19.1466H23.681C23.8823 19.1466 23.9966 18.9251 23.9966 18.6703C23.9966 18.4487 23.9025 18.207 23.681 18.207H20.7817C20.5602 18.207 20.4663 18.4487 20.4663 18.6703C20.4663 18.9251 20.5804 19.1466 20.7817 19.1466Z" fill="#C39F7B" stroke="#C39F7B" stroke-width="0.3"/>
</svg>
