<svg width="30" height="30" viewBox="0 0 30 30" fill="none" xmlns="http://www.w3.org/2000/svg">
<g clip-path="url(#clip0)">
<path d="M26.1427 3.21087L15.3023 0.0424731L15.28 0.0362622C15.0969 -0.0120776 14.9033 -0.0120776 14.7202 0.0362036L14.7089 0.0391919L3.85746 3.21081C3.05695 3.42831 2.49902 4.15699 2.49902 4.98755V20.4432C2.49902 22.4725 3.61916 24.3022 5.42408 25.2253L12.5224 29.3975L12.5717 29.4244C13.332 29.8081 14.1659 30 15 30C15.834 30 16.668 29.8082 17.4282 29.4244L17.4534 29.4118L24.5759 25.2254C26.3809 24.3023 27.501 22.4726 27.501 20.4433V4.98755C27.501 4.15699 26.9432 3.42843 26.1427 3.21087ZM25.7431 20.4432C25.7431 21.8151 24.9824 23.0512 23.7577 23.6693L23.7325 23.6819L16.6124 27.8669C15.6006 28.3683 14.3992 28.3683 13.3874 27.8669L6.2915 23.6962L6.24211 23.6693C5.01756 23.0512 4.25684 21.815 4.25684 20.4432V4.98755C4.25684 4.94976 4.28238 4.91671 4.31889 4.90704L14.9999 1.78546L25.6586 4.90083L25.681 4.90704C25.7176 4.91671 25.7431 4.94976 25.7431 4.98755V20.4432Z" fill="#C39F7B"/>
<path d="M15 6.86133C10.8481 6.86133 7.47021 10.2392 7.47021 14.3912C7.47021 18.5431 10.8481 21.921 15 21.921C19.152 21.921 22.5299 18.5431 22.5299 14.3912C22.5299 10.2392 19.152 6.86133 15 6.86133ZM15 20.1631C11.8173 20.1631 9.22809 17.5738 9.22809 14.3912C9.22809 11.2085 11.8173 8.6192 15 8.6192C18.1827 8.6192 20.772 11.2085 20.772 14.3912C20.772 17.5738 18.1827 20.1631 15 20.1631Z" fill="#C39F7B"/>
<path d="M18.2237 12.1335C17.8941 11.7773 17.338 11.7557 16.9817 12.0854L14.0132 14.8323L13.0429 13.862C12.6997 13.5188 12.1432 13.5187 11.7999 13.862C11.4567 14.2052 11.4567 14.7617 11.7999 15.105L13.3681 16.6732C13.3756 16.6807 13.3837 16.6871 13.3914 16.6943C13.4022 16.7043 13.4128 16.7144 13.424 16.7238C13.4361 16.734 13.4486 16.7435 13.4612 16.7529C13.4727 16.7616 13.4841 16.7703 13.4959 16.7784C13.5092 16.7874 13.5228 16.7955 13.5364 16.8038C13.5481 16.8108 13.5597 16.8181 13.5716 16.8246C13.5863 16.8325 13.6012 16.8394 13.6162 16.8465C13.6278 16.8518 13.6391 16.8576 13.6508 16.8625C13.667 16.8692 13.6834 16.8749 13.6998 16.8806C13.7108 16.8844 13.7217 16.8887 13.7329 16.8921C13.7507 16.8975 13.7687 16.9016 13.7867 16.9059C13.7969 16.9083 13.8069 16.9113 13.8172 16.9134C13.8374 16.9174 13.8578 16.92 13.8782 16.9226C13.8865 16.9237 13.8947 16.9254 13.903 16.9262C13.9318 16.929 13.9606 16.9305 13.9895 16.9305C13.9896 16.9305 13.9896 16.9305 13.9896 16.9305C13.9896 16.9305 13.9897 16.9305 13.9897 16.9305C14.0171 16.9305 14.0446 16.9292 14.072 16.9266C14.0799 16.9258 14.0878 16.9243 14.0958 16.9233C14.1151 16.921 14.1344 16.9186 14.1536 16.915C14.1637 16.9131 14.1736 16.9103 14.1836 16.9081C14.2004 16.9043 14.2173 16.9006 14.234 16.8958C14.2451 16.8926 14.2559 16.8885 14.2669 16.8849C14.2822 16.8798 14.2975 16.8749 14.3125 16.8689C14.3241 16.8643 14.3354 16.8589 14.3469 16.8538C14.3609 16.8476 14.3749 16.8415 14.3887 16.8344C14.4005 16.8284 14.412 16.8216 14.4236 16.815C14.4365 16.8077 14.4494 16.8005 14.462 16.7924C14.4737 16.7849 14.485 16.7768 14.4963 16.7688C14.5084 16.7602 14.5204 16.7516 14.5321 16.7424C14.5431 16.7338 14.5537 16.7246 14.5643 16.7154C14.5716 16.7091 14.5793 16.7034 14.5865 16.6968L18.1756 13.3756C18.5319 13.0459 18.5534 12.4898 18.2237 12.1335Z" fill="#C39F7B"/>
</g>
<defs>
<clipPath id="clip0">
<rect width="30" height="30" fill="white"/>
</clipPath>
</defs>
</svg>
