<svg width="74" height="74" viewBox="0 0 74 74" fill="none" xmlns="http://www.w3.org/2000/svg">
<path d="M56.5507 26.829L56.5697 26.9569L56.7368 28.0759L56.7461 28.1379L56.7084 28.1881L55.7962 29.4018L56.5507 26.829ZM56.5507 26.829H56.4214M56.5507 26.829H56.4214M56.4214 26.829H45.5273H45.3697L45.3775 26.9865L45.4317 28.0794L45.434 28.1253M56.4214 26.829L45.434 28.1253M45.434 28.1253L45.4616 28.162M45.434 28.1253L45.4616 28.162M45.4616 28.162L46.3921 29.4018C47.5133 30.8961 49.2289 31.7539 51.0941 31.7539C52.9592 31.7539 54.6748 30.8961 55.7961 29.4019L45.4616 28.162ZM68.4798 11.5626V11.5924L68.4912 11.62L73.6752 24.1402C73.6776 24.153 73.6799 24.1668 73.6825 24.1832L73.6829 24.1856C73.686 24.2051 73.6897 24.2284 73.6946 24.2523C73.6947 24.253 73.6949 24.2537 73.695 24.2545L73.7434 24.5248C73.7435 24.5253 73.7435 24.5258 73.7436 24.5263C73.8123 24.9669 73.85 25.4183 73.85 25.8782C73.85 29.1721 72.0101 32.0358 69.3036 33.5L69.225 33.5426V33.632V68.4529H4.775V33.632V33.5425L4.69633 33.5C1.98782 32.0359 0.15 29.1723 0.15 25.8782C0.15 25.418 0.185431 24.9668 0.253988 24.5267L0.300908 24.2708C0.300927 24.2707 0.300945 24.2706 0.300963 24.2705C0.305381 24.247 0.308693 24.2272 0.31175 24.209C0.315767 24.185 0.319343 24.1637 0.324405 24.14L5.42327 11.6193L5.43435 11.5921V11.5628V5.54648H68.4798V11.5626ZM70.4071 24.0465H70.6302L70.546 23.8399L66.8175 14.6859L66.7795 14.5925H66.6786H57.7177H57.5437L57.5693 14.7645L58.9311 23.9186L58.9501 24.0465H59.0795H70.4071ZM8.36923 8.32905H8.21923V8.47905V11.5628V11.7128H8.36923H65.5471H65.6971V11.5628V8.47905V8.32905H65.5471H8.36923ZM45.2262 23.9038L45.2332 24.0465H45.376H55.9631H56.1371L56.1114 23.8744L54.7474 14.7203L54.7283 14.5925H54.599H44.9267H44.7691L44.7769 14.7498L45.2262 23.9038ZM42.5901 26.9716L42.5832 26.8289H42.4403H31.5348H31.3921L31.385 26.9714L31.3308 28.0566L31.3281 28.1106L31.3606 28.154L32.2956 29.4017L32.2957 29.4019C33.4192 30.8961 35.1325 31.7539 37 31.7539C38.863 31.7539 40.5787 30.8961 41.6999 29.4018L42.6143 28.1871L42.6469 28.1437L42.6443 28.0896L42.5901 26.9716ZM31.541 23.8889L31.533 24.0465H31.6908H42.289H42.4465L42.4388 23.8892L41.9916 14.7351L41.9846 14.5925H41.8418H32.1537H32.0111L32.0039 14.7349L31.541 23.8889ZM17.9044 23.8747L17.8792 24.0465H18.0528H28.6035H28.746L28.7533 23.9041L29.2185 14.7501L29.2265 14.5925H29.0687H19.3987H19.2691L19.2503 14.7206L17.9044 23.8747ZM28.5953 26.9865L28.6032 26.829H28.4455H17.6012H17.4717L17.4528 26.9572L17.2834 28.1055L17.2742 28.1674L17.3118 28.2174L18.2016 29.4019L18.2016 29.4019C19.3251 30.896 21.0383 31.7539 22.9036 31.7539C24.7688 31.7539 26.4821 30.896 27.6055 29.4019L27.6056 29.4019L28.5089 28.1994L28.5365 28.1626L28.5388 28.1168L28.5953 26.9865ZM7.31921 14.5925H7.21834L7.18029 14.6859L3.45196 23.8399L3.36782 24.0465H3.59088H14.9366H15.0661L15.085 23.9183L16.4309 14.7643L16.4561 14.5925H16.2825H7.31921ZM3.18865 26.829H3.00647L3.04144 27.0078C3.56988 29.71 5.95415 31.754 8.80716 31.754C10.6747 31.754 12.3879 30.8962 13.5114 29.4021L13.5115 29.4019L14.363 28.2671L14.3833 28.24L14.39 28.2067L14.6317 27.0087L14.6679 26.829H14.4846H3.18865ZM60.125 65.6726H60.275V65.5226V40.8529V40.7029H60.125H47.7901H47.6401V40.8529V51.6476V51.7976H47.7901H49.3326C50.1014 51.7976 50.725 52.4196 50.725 53.1878C50.725 53.9559 50.1014 54.5779 49.3326 54.5779H47.7901H47.6401V54.7279V65.5226V65.6726H47.7901H60.125ZM66.2904 65.6726H66.4404V65.5226V34.619V34.449L66.2718 34.4701C65.9165 34.5146 65.5569 34.5379 65.1884 34.5379C62.3559 34.5379 59.8432 33.1775 58.2624 31.0737L58.1425 30.9141L58.0225 31.0737C56.4417 33.1774 53.9267 34.5379 51.0943 34.5379C48.2618 34.5379 45.7468 33.1774 44.166 31.0737L44.046 30.9141L43.9261 31.0737C42.3453 33.1775 39.8326 34.5379 37.0001 34.5379C34.1676 34.5379 31.6504 33.1774 30.0719 31.0738L29.952 30.914L29.832 31.0737C28.2512 33.1774 25.7362 34.5379 22.9037 34.5379C20.0713 34.5379 17.5562 33.1774 15.9754 31.0737L15.8554 30.914L15.7355 31.0738C14.1569 33.1774 11.6398 34.5379 8.8073 34.5379C8.44337 34.5379 8.07918 34.5145 7.72626 34.4701L7.55756 34.4489V34.619V65.5226V65.6726H7.70756H44.7076H44.8576V65.5226V37.9226H63.0576V65.5226V65.6726H63.2076H66.2901H66.2904ZM59.5634 28.1444L59.569 28.1819L59.5918 28.2121L60.4882 29.402C61.6096 30.8962 63.3252 31.754 65.1881 31.754C68.0436 31.754 70.4256 29.71 70.9539 27.008L70.9889 26.8292H70.8067H59.5378H59.3632L59.3895 27.0018L59.5634 28.1444Z" fill="#C39F7B" stroke="#172031" stroke-width="0.3"/>
<path d="M38.5405 56.4234H38.6905V56.2734V40.8537V40.7037H38.5405H13.8754H13.7254V40.8537V56.2734V56.4234H13.8754H38.5405ZM41.4754 59.2037H10.9405V37.9234H41.4754V59.2037Z" fill="#C39F7B" stroke="#172031" stroke-width="0.3"/>
<path d="M34.4616 49.1202L34.462 49.1198C34.7123 48.8675 35.0605 48.7125 35.4463 48.7125C36.2147 48.7125 36.8364 49.3362 36.8364 50.1028C36.8364 50.4885 36.6816 50.8367 36.4287 51.0896L33.3462 54.1699L33.3457 54.1703C33.0954 54.4226 32.7472 54.5776 32.3614 54.5776C31.595 54.5776 30.9713 53.9559 30.9713 53.1875C30.9713 52.8041 31.1261 52.4559 31.3786 52.2055L31.3791 52.2051L34.4616 49.1202Z" fill="#C39F7B" stroke="#172031" stroke-width="0.3"/>
<path d="M34.4615 42.9562L34.4619 42.9558C34.7123 42.7034 35.0604 42.5484 35.4462 42.5484C36.2148 42.5484 36.8364 43.17 36.8364 43.9386C36.8364 44.3223 36.6814 44.6726 36.4291 44.9228L36.4287 44.9233L27.1787 54.1709L27.1782 54.1714C26.9278 54.4238 26.5797 54.5787 26.1962 54.5787C25.4274 54.5787 24.8038 53.9569 24.8038 53.1886C24.8038 52.8053 24.9607 52.4547 25.2115 52.2039C25.2115 52.2039 25.2115 52.2039 25.2115 52.2038L34.4615 42.9562Z" fill="#C39F7B" stroke="#172031" stroke-width="0.3"/>
</svg>
