<svg width="80" height="80" viewBox="0 0 80 80" fill="none" xmlns="http://www.w3.org/2000/svg">
<mask id="path-1-inside-1" fill="white">
<path d="M76.7482 23.8539L76.7484 23.8536L76.7415 23.8506L76.7332 23.847L47.9984 11.3536C47.8411 11.2852 47.6715 11.25 47.5 11.25H28.7513C28.5568 11.2498 28.3649 11.295 28.1909 11.382L3.19092 23.882C2.98329 23.9858 2.80868 24.1454 2.68664 24.3429C2.56461 24.5403 2.49998 24.7679 2.5 25V31.25C2.49998 31.4631 2.55443 31.6726 2.65819 31.8588C2.76195 32.0449 2.91156 32.2014 3.09283 32.3134C3.27409 32.4254 3.48098 32.4892 3.69386 32.4988C3.90673 32.5084 4.11851 32.4633 4.30908 32.368L5 32.0226V67.5C5.00002 67.8315 5.13172 68.1494 5.36613 68.3839C5.60055 68.6183 5.91848 68.75 6.25 68.75H73.75C74.0815 68.75 74.3994 68.6183 74.6339 68.3839C74.8683 68.1494 75 67.8315 75 67.5V32.5H76.25C76.5815 32.5 76.8994 32.3683 77.1339 32.1339C77.3683 31.8994 77.5 31.5815 77.5 31.25V25C77.5 24.7565 77.4288 24.5183 77.2952 24.3147C77.1617 24.1111 76.9716 23.9509 76.7482 23.8539ZM70.2399 23.75H54.0451L34.0451 13.75H47.24L70.2399 23.75ZM5 25.7726L28.75 13.8976L52.5 25.7726V29.2274L29.3091 17.632C29.1355 17.5452 28.9441 17.5 28.75 17.5C28.5559 17.5 28.3645 17.5452 28.1909 17.632L5 29.2274V25.7726ZM45 66.25H42.5V47.5C42.5 47.1685 42.3683 46.8506 42.1339 46.6161C41.8994 46.3817 41.5815 46.25 41.25 46.25H32.5V37.5C32.5 37.1685 32.3683 36.8506 32.1339 36.6161C31.8994 36.3817 31.5815 36.25 31.25 36.25H16.25C15.9185 36.25 15.6006 36.3817 15.3661 36.6161C15.1317 36.8506 15 37.1685 15 37.5V66.25H12.5V33.75H45V66.25ZM17.5 56.25V48.75H20V51.25H22.5V48.75H25V56.25H17.5ZM22.5 41.25V38.75H25V46.25H17.5V38.75H20V41.25H22.5ZM27.5 38.75H30V46.25H27.5V38.75ZM37.5 48.75H40V56.25H37.5V48.75ZM35 56.25H27.5V48.75H30V51.25H32.5V48.75H35V56.25ZM27.5 58.75H30V61.25H32.5V58.75H35V66.25H27.5V58.75ZM37.5 58.75H40V66.25H37.5V58.75ZM17.5 66.25V58.75H20V61.25H22.5V58.75H25V66.25H17.5ZM47.5 66.25V32.5C47.5 32.1685 47.3683 31.8506 47.1339 31.6161C46.8994 31.3817 46.5815 31.25 46.25 31.25H11.25C10.9185 31.25 10.6006 31.3817 10.3661 31.6161C10.1317 31.8506 10 32.1685 10 32.5V66.25H7.5V30.7726L28.75 20.1476L50 30.7726V66.25H47.5ZM72.5 66.25H52.5V32.0226L53.1909 32.368C53.3645 32.4548 53.5559 32.5 53.75 32.5H72.5V66.25ZM75 30H55V26.25H75V30Z"/>
</mask>
<path d="M76.7482 23.8539L76.7484 23.8536L76.7415 23.8506L76.7332 23.847L47.9984 11.3536C47.8411 11.2852 47.6715 11.25 47.5 11.25H28.7513C28.5568 11.2498 28.3649 11.295 28.1909 11.382L3.19092 23.882C2.98329 23.9858 2.80868 24.1454 2.68664 24.3429C2.56461 24.5403 2.49998 24.7679 2.5 25V31.25C2.49998 31.4631 2.55443 31.6726 2.65819 31.8588C2.76195 32.0449 2.91156 32.2014 3.09283 32.3134C3.27409 32.4254 3.48098 32.4892 3.69386 32.4988C3.90673 32.5084 4.11851 32.4633 4.30908 32.368L5 32.0226V67.5C5.00002 67.8315 5.13172 68.1494 5.36613 68.3839C5.60055 68.6183 5.91848 68.75 6.25 68.75H73.75C74.0815 68.75 74.3994 68.6183 74.6339 68.3839C74.8683 68.1494 75 67.8315 75 67.5V32.5H76.25C76.5815 32.5 76.8994 32.3683 77.1339 32.1339C77.3683 31.8994 77.5 31.5815 77.5 31.25V25C77.5 24.7565 77.4288 24.5183 77.2952 24.3147C77.1617 24.1111 76.9716 23.9509 76.7482 23.8539ZM70.2399 23.75H54.0451L34.0451 13.75H47.24L70.2399 23.75ZM5 25.7726L28.75 13.8976L52.5 25.7726V29.2274L29.3091 17.632C29.1355 17.5452 28.9441 17.5 28.75 17.5C28.5559 17.5 28.3645 17.5452 28.1909 17.632L5 29.2274V25.7726ZM45 66.25H42.5V47.5C42.5 47.1685 42.3683 46.8506 42.1339 46.6161C41.8994 46.3817 41.5815 46.25 41.25 46.25H32.5V37.5C32.5 37.1685 32.3683 36.8506 32.1339 36.6161C31.8994 36.3817 31.5815 36.25 31.25 36.25H16.25C15.9185 36.25 15.6006 36.3817 15.3661 36.6161C15.1317 36.8506 15 37.1685 15 37.5V66.25H12.5V33.75H45V66.25ZM17.5 56.25V48.75H20V51.25H22.5V48.75H25V56.25H17.5ZM22.5 41.25V38.75H25V46.25H17.5V38.75H20V41.25H22.5ZM27.5 38.75H30V46.25H27.5V38.75ZM37.5 48.75H40V56.25H37.5V48.75ZM35 56.25H27.5V48.75H30V51.25H32.5V48.75H35V56.25ZM27.5 58.75H30V61.25H32.5V58.75H35V66.25H27.5V58.75ZM37.5 58.75H40V66.25H37.5V58.75ZM17.5 66.25V58.75H20V61.25H22.5V58.75H25V66.25H17.5ZM47.5 66.25V32.5C47.5 32.1685 47.3683 31.8506 47.1339 31.6161C46.8994 31.3817 46.5815 31.25 46.25 31.25H11.25C10.9185 31.25 10.6006 31.3817 10.3661 31.6161C10.1317 31.8506 10 32.1685 10 32.5V66.25H7.5V30.7726L28.75 20.1476L50 30.7726V66.25H47.5ZM72.5 66.25H52.5V32.0226L53.1909 32.368C53.3645 32.4548 53.5559 32.5 53.75 32.5H72.5V66.25ZM75 30H55V26.25H75V30Z" fill="#C39F7B" stroke="#172031" stroke-width="0.4" mask="url(#path-1-inside-1)"/>
<path d="M57.5 37.4H57.4V37.5V40V40.1H57.5H67.5H67.6V40V37.5V37.4H67.5H57.5ZM68.75 42.4H56.25C55.945 42.4 55.6525 42.2788 55.4368 42.0632C55.2212 41.8475 55.1 41.555 55.1 41.25V36.25C55.1 36.25 55.1 36.25 55.1 36.25C55.1 35.945 55.2212 35.6525 55.4368 35.4368C55.6525 35.2212 55.945 35.1 56.25 35.1C56.25 35.1 56.25 35.1 56.25 35.1H68.75C69.055 35.1 69.3475 35.2212 69.5632 35.4368C69.7788 35.6525 69.9 35.945 69.9 36.25V41.25C69.9 41.555 69.7788 41.8475 69.5632 42.0632C69.3475 42.2788 69.055 42.4 68.75 42.4Z" fill="#C39F7B" stroke="#172031" stroke-width="0.2"/>
</svg>
